<?xml version="1.0" encoding="UTF-8"?>
<svg id="illu" xmlns="http://www.w3.org/2000/svg" viewBox="0 0 922.12 188.21">
  <defs>
    <style>
      .cls-1 {
        fill: #faf9f9;
      }
    </style>
  </defs>
  <g>
    <path class="cls-1" d="M166.36,91.91c-.11,0-.21,0-.32,0l-10.28.07c-1-2.44-1.33-3.22-2.39-5.81,4.53-2.44,7.02-7.69,5.7-12.91-1.32-5.21-6-8.68-11.14-8.68-.93,0-1.88.11-2.83.35-6.16,1.56-9.89,7.81-8.33,13.97,1.32,5.21,6.01,8.64,11.15,8.64h.01l.47,4.48-6.41.05c-23.45.17-42.31,19.31-42.14,42.76l.05,7.17c.11,15.71,12.88,28.36,28.57,28.36.07,0,.14,0,.21,0l51.81-.38c15.78-.11,28.48-13,28.36-28.78l-.05-7.17c-.17-23.34-19.14-42.14-42.44-42.14ZM137.61,128.09h-.03c-2,0-3.64-1.63-3.66-3.63l-.08-10.76c-.01-2.01,1.62-3.67,3.63-3.68h.03c2,0,3.64,1.63,3.66,3.63l.08,10.76c.01,2.01-1.62,3.67-3.63,3.68ZM171.34,127.85h-.03c-2,0-3.64-1.63-3.66-3.63l-.08-10.76c-.01-2.01,1.62-3.67,3.63-3.68,0,0,.02,0,.03,0,2,0,3.64,1.63,3.66,3.63l.08,10.76c.01,2.01-1.62,3.67-3.63,3.68Z"/>
    <g>
      <path class="cls-1" d="M154.45,15.97l-28.76,28.76,12.23,12.23c19.1-9.01,33.71,8.28,31.62,21.2l24.24-22.86-39.33-39.33Z"/>
      <path class="cls-1" d="M127.8,83.97c-2.95-7.59-1.06-15.05,2.29-19.99l-32.31-32.31L14.21,115.23c43.79-13.38,83.23-12.06,85.99-12.06,7.73-10.76,19-16.74,27.6-19.2Z"/>
      <path class="cls-1" d="M211.84,52.6l-32.6,30.75c21.05,5.31,37.17,23.38,39.52,45.45,42.23,11.14,76.88,7.74,77.02,7.73l-83.93-83.93Z"/>
    </g>
  </g>
  <g>
    <path class="cls-1" d="M332.63,67.68h32.47c9.71,0,16.95,1.77,21.72,5.31s7.15,8.77,7.15,15.68c0,4.4-.87,7.97-2.61,10.71-1.74,2.74-4.3,4.94-7.67,6.6l14.91,22.87h-23.47l-11.39-18.68h-10.54v18.68h-20.56v-61.17ZM373.07,88.84c0-2.18-.71-3.69-2.14-4.55-1.43-.86-3.74-1.28-6.94-1.28h-10.8v11.82h10.62c3.26,0,5.61-.43,7.07-1.29s2.19-2.43,2.19-4.71Z"/>
    <path class="cls-1" d="M402.11,98.26c0-6.73,1.5-12.51,4.5-17.3,3-4.8,7.32-8.46,12.98-11.01,5.65-2.54,12.39-3.81,20.22-3.81s14.42,1.28,19.96,3.81c5.54,2.54,9.8,6.21,12.77,11.01s4.46,10.57,4.46,17.3-1.5,12.51-4.5,17.3-7.31,8.47-12.94,11.01c-5.63,2.54-12.38,3.81-20.26,3.81s-14.35-1.27-19.92-3.81c-5.57-2.54-9.84-6.21-12.81-11.01s-4.46-10.56-4.46-17.3ZM425.07,98.26c0,4.63,1.27,8.2,3.81,10.71,2.54,2.52,6.1,3.77,10.67,3.77s8.13-1.25,10.67-3.77c2.54-2.51,3.81-6.08,3.81-10.71s-1.27-8.19-3.81-10.71c-2.54-2.51-6.1-3.76-10.67-3.76s-8.13,1.25-10.67,3.76c-2.54,2.52-3.81,6.09-3.81,10.71Z"/>
    <path class="cls-1" d="M487.44,67.68h33.75c17.76,0,26.64,5.28,26.64,15.85,0,5.71-3.2,9.99-9.6,12.85,7.94,2.63,11.91,7.45,11.91,14.48,0,5.88-2.33,10.35-6.98,13.41-4.65,3.05-11.43,4.58-20.34,4.58h-35.38v-61.17ZM525.48,82.97c-1.09-.66-2.89-.99-5.4-.99h-12.59v8.91h12.85c4.51,0,6.77-1.51,6.77-4.54,0-1.6-.54-2.73-1.62-3.38ZM529.25,109.14c0-1.89-.67-3.24-2.01-4.07s-3.53-1.24-6.55-1.24h-13.19v10.71h13.36c3.03,0,5.18-.41,6.47-1.24s1.93-2.22,1.93-4.16Z"/>
    <path class="cls-1" d="M557.86,98.26c0-6.73,1.5-12.51,4.5-17.3,3-4.8,7.32-8.46,12.98-11.01,5.65-2.54,12.39-3.81,20.22-3.81s14.42,1.28,19.96,3.81c5.54,2.54,9.8,6.21,12.77,11.01s4.46,10.57,4.46,17.3-1.5,12.51-4.5,17.3-7.31,8.47-12.94,11.01c-5.63,2.54-12.38,3.81-20.26,3.81s-14.35-1.27-19.92-3.81c-5.57-2.54-9.84-6.21-12.81-11.01s-4.46-10.56-4.46-17.3ZM580.82,98.26c0,4.63,1.27,8.2,3.81,10.71,2.54,2.52,6.1,3.77,10.67,3.77s8.13-1.25,10.67-3.77c2.54-2.51,3.81-6.08,3.81-10.71s-1.27-8.19-3.81-10.71c-2.54-2.51-6.1-3.76-10.67-3.76s-8.13,1.25-10.67,3.76c-2.54,2.52-3.81,6.09-3.81,10.71Z"/>
    <path class="cls-1" d="M671.03,108.03l13.28-40.35h23.56l-23.56,61.17h-26.9l-23.47-61.17h24.07l13.02,40.35Z"/>
    <path class="cls-1" d="M722.95,128.85h-22.27l25.36-61.17h26.39l25.36,61.17h-22.79l-3.26-8.99h-25.61l-3.17,8.99ZM738.97,83.95l-7.11,19.7h14.14l-7.02-19.7Z"/>
    <path class="cls-1" d="M784.97,67.68h22.1v43.43h32.9l-2.06,17.74h-52.94v-61.17Z"/>
    <path class="cls-1" d="M855.74,106.4l-25.1-38.73h23.56l12.85,21.77,12.94-21.77h22.96l-25.1,38.64v22.53h-22.1v-22.44Z"/>
  </g>
</svg>