<?xml version="1.0" encoding="UTF-8"?>
<svg id="illu" xmlns="http://www.w3.org/2000/svg" viewBox="0 0 37.757174081639278 14.999361581640187">
  <defs>
    <style>
      .cls-1 {
        fill: #12120d;
      }
    </style>
  </defs>
  <path class="cls-1" d="M7.757495411909986.878584919730201L.878584919729292,7.757495411919081c-1.171446559639662,1.171446559630567-1.171446559639662,3.07073669816964,0,4.242183257811121l.000004242180694.000004242188879c1.171446559639662,1.171446559630567,3.070736698179644,1.171446559630567,4.242183257819306,0l2.636722992180694-2.636722992188879c1.171446559639662-1.171446559641481,3.070736698179644-1.171446559641481,4.242183257819306,0l4.757816742180694,4.757816742188879c1.171446559639662,1.171446559630567,3.070736698179644,1.171446559630567,4.242183257819306,0l4.757816742180694-4.757816742188879c1.171446559639662-1.171446559641481,3.070736698179644-1.171446559641481,4.242183257819306,0l2.636722992180694,2.636722992188879c1.171446559639662,1.171446559630567,3.070736698179644,1.171446559630567,4.242183257819306,0l.000004242180694-.000004242188879c1.171446559639662-1.171446559641481,1.171446559639662-3.070736698180554,0-4.242183257811121L29.999678669729292.878584919730201c-1.171446559639662-1.171446559641481-3.070736698179644-1.171446559641481-4.242183257819306,0l-4.757816742180694,4.757816742188879c-1.171446559639662,1.171446559630567-3.070736698179644,1.171446559630567-4.242183257819306,0L11.999678669729292.878584919730201c-1.171446559639662-1.171446559641481-3.070736698179644-1.171446559641481-4.242183257819306,0Z"/>
</svg>