<?xml version="1.0" encoding="UTF-8"?>
<svg id="illu" xmlns="http://www.w3.org/2000/svg" viewBox="0 0 27 50.820767478240668">
  <defs>
    <style>
      .cls-1 {
        fill: #12120d;
      }
    </style>
  </defs>
  <path class="cls-1" d="M18,2.255761389531472v10.313757899239135c0,1.24333004312939-1.007918146340671,2.251248189470061-2.251248189470061,2.251248189470061h-4.497503621059877c-1.2433300431303,0-2.251248189470061-1.007918146340671-2.251248189470061-2.251248189470061V2.255761389531472c0-2.005647931810017-2.424913797130102-3.010080114170705-3.843121050380432-1.591872860910371L.65937532855969,5.161392149680978c-.422190932439662.422190932440571-.65937532855969.994804718338855-.65937532855969,1.591872860910371v7.135004935298639c0,.597068142571516.237184396120028,1.169681928469799.65937532855969,1.591872860910371l7.681249342869705,7.681249342880619c.422190932450576.422190932440571.659375328570604.994804718338855.659375328570604,1.591872860910371v23.816254278179258c0,1.24333004312939,1.007918146339762,2.251248189470061,2.251248189470061,2.251248189470061h4.497503621059877c1.24333004312939,0,2.251248189470061-1.007918146340671,2.251248189470061-2.251248189470061v-23.816254278179258c0-.597068142571516.237184396120028-1.169681928469799.65937532855969-1.591872860910371l7.681249342869705-7.681249342880619c.422190932450576-.422190932440571.659375328570604-.994804718338855.659375328570604-1.591872860910371v-7.135004935298639c0-.597068142571516-.237184396120028-1.169681928469799-.65937532855969-1.591872860910371L21.843121050379523.663888528621101c-1.418207253259425-1.418207253260334-3.843121050379523-.413775070899646-3.843121050379523,1.591872860910371Z"/>
</svg>