<?xml version="1.0" encoding="UTF-8"?>
<svg id="illu" xmlns="http://www.w3.org/2000/svg" viewBox="0 0 34.446303551219899 34.37646484375">
  <defs>
    <style>
      .cls-1 {
        fill: #12120d;
      }
    </style>
  </defs>
  <path class="cls-1" d="M17.188110351569776,0C7.6953125,0,0,7.695434570308862,0,17.188232421869543c0,1.256009800719767.134779863699805,2.480497781589293.390623149050043,3.659853989000112.258579585630287,1.191969681840419,1.537477220839719,1.856480627780911,2.656932768190018,1.372255058400697l11.698329094299879-5.060165256190885c1.601832721030405-.692880001570302,3.225729059859987.93101266343001,2.532852682220437,2.532846952000909l-5.040238352870801,11.652333484978953c-.484982439219493,1.121212276189908.181775629690492,2.404643728650626,1.376831225879869,2.657955901049718,1.152452240280581.244281673180012,2.347483145380465.373152292640953,3.572779784800332.373152292640953,9.492797851559772,0,17.188232421870453-7.695434570319776,17.188232421870453-17.188232421880457,0-.684997558590112.081909179689319-1.359252929689319.004028320309772-2.023315429689319l.065907467339457-13.117555770370018c.005335831950106-1.061990029380468-.84446794672931-1.927936901071007-1.906441017259567-1.935967535029704-4.379646263189898-.033118858671514-14.790133354530553-.111393686780502-15.351727192260114-.111393686780502Z"/>
</svg>