<?xml version="1.0" encoding="UTF-8"?>
<svg id="illu" xmlns="http://www.w3.org/2000/svg" viewBox="0 0 53.895357273502668 81.711589586629998">
  <defs>
    <style>
      .cls-1, .cls-2 {
        fill: none;
      }

      .cls-2 {
        stroke: #12120d;
        stroke-linecap: round;
        stroke-miterlimit: 10;
        stroke-width: 2.88739106059074px;
      }

      .cls-3 {
        fill: #12120d;
      }
    </style>
  </defs>
  <path d="M21.923396219315691,41.647723185771611h0c-.013916015625-.054321289060681-.016845703125-.108764648441138-.033813476561591-.162841796871362l-1.606201171875-5.10546875c-.427368164063409-1.358276367189319-1.669067382813409-2.166625976569776-2.957763671875-2.166625976569776-.61083984375,0-1.23193359375.181274414069776-1.782348632813409.571655273441138L1.322688211504101,44.869158732650249c-2.580078125,1.829833984371362-1.051025390625,5.633056640621362,1.718872070311591,5.633056640621362.318237304688409,0,.652221679688409-.050048828121362.998779296875-.159057617191138l2.026977539063409-.6376953125h0l13.799926757811591-4.341552734369543c1.575561523438409-.495727539060681,2.461547851563409-2.135131835939319,2.05615234375-3.716186523439319Z"/>
  <g>
    <path class="cls-3" d="M14.937515915737094,81.711589586509945h-5.352156464349719c-2.098730852640074,0-3.588226757329721-2.045558117028122-2.943910551250156-4.042938355858496l5.35215646432971-16.591685039449658c1.082594900850381-3.356044192600166,6.037200342189863-2.576687258850143,6.037200342189863.949648564919698v16.591685039458753c0,1.708376778329693-1.384913012590005,3.093289790929703-3.093289790919698,3.093289790929703Z"/>
    <path class="cls-3" d="M28.41623690610686,81.711589586389891l5.352156464340624.000000000240107c2.098730852660083.000000000090949,3.588226757429766-2.04555811686987,2.94391055143933-4.042938355718434l-5.352156463599385-16.591685039700678c-1.082594900670301-3.356044192649279-6.037200342069809-2.576687259119353-6.037200342219876.949648564650488l-.000000000740329,16.591685039458753c-.000000000080036,1.708376778331512,1.384913012449942,3.093289790991548,3.093289790779636,3.093289791069765Z"/>
    <path class="cls-3" d="M46.860630933247194,64.00516742812033l5.017233225829841-1.863585140619762c1.967398045279879-.730764068130156,2.651435714200488-3.166949308979383,1.351964583890549-4.814992382858691l-10.794347161750011-13.689837859470572c-2.183401265100656-2.769079857580437-6.556594238109938-.313332409139548-5.328747652180027,2.992335012650074l5.777113935909256,15.553423000099428c.59484538614015,1.601471255860815,2.375311812430482,2.417502756330578,3.976783068300392,1.822657370199522Z"/>
    <path class="cls-2" d="M43.151528530726864,9.905890481421011c-1.745254295979976-1.613231077839373-2.119773249659374-4.214974672300741-.936800905229575-6.169995835849477,1.226476562739663-2.026848440700633,3.700930036889986-2.654411895820886,5.620855783569823-2.099733112050671,2.580847471070228.745639140299318,3.399421634820101,3.407956316539639,3.553398370549985,3.908733172389475.819178388989712,2.664280908320507-.477640063820218,4.978740570240916-.710719955810418,5.394699305970789-1.20276072148954,2.146585745329503-2.626416125679498,2.084400896210354-3.650275819699345,3.941034047460562-.60734708515065,1.101326406878798-1.073154404380148,2.876238092439962-.286100658090618,5.774328998249985"/>
    <circle class="cls-3" cx="48.028764593974756" cy="24.350625656981265" r="1.4474807057818"/>
    <path d="M25.185847391190691,41.647723185771611h-2.244995117186591c.174194335936591.902954101558862.059204101561591,1.830078125-.372314453125,2.657836914058862-.505493164063409.969482421880457-1.358276367188409,1.684204101569776-2.401245117188409,2.012329101569776l-14.461669921875,4.5498046875c-.253295898436591.98291015625-.402099609375,2.0078125-.402099609375,3.06982421875,0,6.787353515621362,5.502197265625,12.289794921871362,12.289794921875,12.289794921871362h7.592529296875c6.78759765625,0,12.289855957032159-5.50244140625,12.289855957032159-12.289794921871362,0-6.78759765625-5.502258300782159-12.289794921878638-12.289855957032159-12.289794921878638Z"/>
    <g>
      <path class="cls-1" d="M20.283381570879101,36.37953470921093c-.427368164063409-1.3583984375-1.669067382813409-2.166748046880457-2.957763671875-2.166748046880457-.61083984375,0-1.23193359375.181396484380457-1.782348632813409.57177734375L1.322688211504101,44.86928080296093c-2.580078125,1.829833984369543-1.051025390625,5.633056640619543,1.718872070311591,5.633056640619543.318237304688409,0,.652221679688409-.050048828119543.998779296875-.1591796875l15.826904296875-4.979248046869543c1.629638671875-.5126953125,2.535034179688409-2.249267578130457,2.022338867188409-3.87890625l-1.606201171875-5.10546875Z"/>
      <g>
        <path class="cls-1" d="M26.367488016190691,21.680926310771611c-.002685546875,0-.005126953125.000122070308862-.0078125.000122070308862-.593017578125.004272460941138-1.07470703125.493041992191138-1.070556640625,1.086059570319776l.023193359375,3.174072265621362c.00439453125.59033203125.488525390625,1.0703125,1.078125,1.0703125h.008056640625c.593017578125-.004272460941138,1.07470703125-.493041992191138,1.0703125-1.086059570310681l-.02294921875-3.173950195310681c-.00439453125-.590454101569776-.48876953125-1.070556640628638-1.078369140625-1.070556640628638Z"/>
        <path class="cls-1" d="M16.421198953690691,21.753436076400249h-.0078125c-.593017578125.004150390621362-1.07470703125.492919921871362-1.0703125,1.086059570310681l.02294921875,3.173950195310681c.00439453125.59033203125.48876953125,1.070434570308862,1.078369140625,1.070434570308862h.0078125c.593017578125-.004272460930224,1.07470703125-.493041992180224,1.0703125-1.086059570308862l-.02294921875-3.174072265621362c-.00439453125-.59033203125-.48876953125-1.070434570319776-1.078369140625-1.0703125Z"/>
        <path d="M37.445063699785351,28.842303263900249c-.050048828125-6.8818359375-5.644958496094659-12.426513671878638-12.515319824219659-12.426513671878638-.03125,0-.0615234375.000122070308862-.0927734375.000366210939319l-3.030517578125.022094726560681c-.29638671875-.7197265625-.390869140625-.949340820310681-.704833984375-1.712158203121362,1.3349609375-.72021484375,2.07080078125-2.268798828128638,1.681640625-3.80615234375-.388671875-1.536376953128638-1.76904296875-2.559814453128638-3.28466796875-2.559814453128638-.275390625-.000122070310681-.55517578125.03369140625-.834228515625.104248046878638-1.8154296875.45947265625-2.914794921875,2.303466796871362-2.45556640625,4.119018554680224.388916015625,1.536254882819776,1.77099609375,2.54833984375,3.28662109375,2.54833984375h.003173828125l.139404296875,1.322265625-1.89111328125.013793945319776c-6.9130859375.05029296875-12.4765625,5.695068359371362-12.42626953125,12.608154296871362l.015380859375,2.114501953128638c.021240234375,2.914428710930224,1.521240234375,5.470458984371362,3.78173828125,6.966796875l5.847045898438409-4.146484375c.697509765625-.49462890625,1.513793945311591-.756103515628638,2.36083984375-.756103515628638,1.80029296875,0,3.372192382811591,1.152099609378638,3.91162109375,2.86669921875l1.060424804686591,3.370361328128638,6.7998046875-.04931640625c4.652587890625-.033935546878638,8.396911621094659-3.8330078125,8.362976074219659-8.485595703128638l-.015380859375-2.114501953121362ZM16.452204813065691,27.083880412330473h-.0078125c-.589599609375,0-1.073974609375-.480102539058862-1.078369140625-1.070434570308862l-.02294921875-3.173950195310681c-.00439453125-.593139648439319.477294921875-1.081909179689319,1.0703125-1.086059570310681h.0078125c.589599609375-.000122070319776,1.073974609375.47998046875,1.078369140625,1.0703125l.02294921875,3.174072265621362c.00439453125.593017578128638-.477294921875,1.081787109378638-1.0703125,1.086059570308862ZM26.398493875565691,27.011492717021611h-.008056640625c-.589599609375,0-1.07373046875-.47998046875-1.078125-1.0703125l-.023193359375-3.174072265621362c-.004150390625-.593017578128638.4775390625-1.081787109378638,1.070556640625-1.086059570319776.002685546875,0,.005126953125-.000122070308862.0078125-.000122070308862.589599609375,0,1.073974609375.480102539058862,1.078369140625,1.070556640628638l.02294921875,3.173950195310681c.00439453125.593017578119543-.477294921875,1.081787109369543-1.0703125,1.086059570310681Z"/>
      </g>
    </g>
  </g>
</svg>