<?xml version="1.0" encoding="UTF-8"?>
<svg id="Calque_1" xmlns="http://www.w3.org/2000/svg" version="1.1" viewBox="0 0 512 512">
  <!-- Generator: Adobe Illustrator 30.0.0, SVG Export Plug-In . SVG Version: 2.1.1 Build 123)  -->
  <defs>
    <style>
      .st0 {
        fill: none;
        stroke: #000;
        stroke-miterlimit: 10;
      }
    </style>
  </defs>
  <path d="M271.4645386,10l25.3945007,3.1888428c25.7110901,4.2216187,50.5713806,12.6676025,73.8977966,25.1054077,22.8147278,12.1650391,43.5925293,27.8314819,61.7564392,46.5644531,18.1724548,18.7417603,33.1896362,39.9975586,44.634552,63.177002,11.7390747,23.7752991,19.4089966,48.9752808,22.7953491,74.8912964.2432861,1.8743591.3867188,3.9137268.5387573,6.0729065.2796021,3.9745178.5678101,8.0706482,1.5180664,12.2116394v29.5704956c-.9520264,4.1298523-1.2366333,8.2098999-1.5126953,12.1685791-.1515503,2.172821-.2947388,4.2250977-.5406494,6.0956421-3.4438477,25.987915-11.1376343,51.2104492-22.8677368,74.9671936-11.4399109,23.1690979-26.4377136,44.4020996-44.5768127,63.1089935-18.1303711,18.697998-38.8869934,34.3448181-61.6933594,46.5059967-23.3067932,12.427948-48.1890869,20.9005432-73.9605713,25.1840668l-25.3836365,3.1874847h-30.1464233c-4.1293945-.9520721-8.2066345-1.2366638-12.1624756-1.5128174-2.1708984-.1515503-4.2214355-.294632-6.0908203-.5403595-26.6009064-3.5280914-52.3858948-11.5118256-76.6386261-23.7294617-23.6499176-11.9140015-45.2162781-27.522995-64.10009-46.3934479-18.8972778-18.8839111-34.5129166-40.4397278-46.4132767-64.0688171-12.2198181-24.2634583-20.1791801-50.0658264-23.6580925-76.6983643-.2479057-1.8856506-.3923607-3.9413757-.5452728-6.1176453-.2735634-3.8917542-.5554314-7.9013062-1.4655838-11.9567871.1504707-4.8629761.0287247-9.7010193-.0894127-14.3934937-.1406364-5.5881653-.2734566-10.8665466.0285454-16.0054321,3.4453621-58.9620056,29.0973625-115.1966553,72.2305412-158.3448486C125.4720306,39.1651611,181.5687866,13.5176392,240.3956604,10h31.0688782M272.0899963,0h-31.9899902C113.1900024,7.4299927,7.6200104,113.0200195.2000084,240c-.6199989,10.5499878.4500008,21.4200134,0,32,1.5299988,5.7600098,1.3499985,12.3500061,2.1399994,18.3599854,14.7700005,113.0700073,106.5399971,204.530014,219.4099922,219.5000153,6.0100098.7899933,12.5899963.6000061,18.3500061,2.1399994h31.9899902l26.2000122-3.2899933c109.5599976-18.1200104,196.9599915-108.1000214,211.5699768-218.3500214.7900391-6.0099792.6000366-12.5999756,2.1400146-18.3599854v-32c-1.5299683-5.7600098-1.3599854-12.3500061-2.1400146-18.3599854C495.4799805,111.5900269,407.6499939,21.1599731,298.2900085,3.289978l-26.2000122-3.289978h0Z"/>
  <path d="M403.0800171,208.460022c-2.6199951-70.1199951-29.4700317-96.8800049-99.460022-99.5-31.0299683-1.1600342-66.6900024-1.0300293-97.710022.3299561-68.9199829,3.0200195-94.2299805,30.7000122-96.7999878,99.1700439-1.1199951,30.0999756-1.1199951,64.9799805,0,95.0799561,2.6300049,70.0700073,29.4200439,96.8800049,99.4700317,99.5,30.0899658,1.1300049,64.9500122,1.1300049,95.039978,0,69.9500122-2.6199951,96.8400269-29.4799805,99.460022-99.5,1.1300049-30.0999756,1.1300049-64.9799805,0-95.0799561ZM376.0900269,314.539978c-3.9900513,71.1500244-58.7800293,61.1100464-112.5400391,61.4200439-21.4599609.1199951-44.289978,1.2999878-65.9699707.0799561-70.8200073-3.9799805-61.0800171-57.789978-61.3900146-111.5799561-.1300049-21.8600464-1.3200073-44.9700317-.0900269-67,4.0400391-71.8400269,62.9000244-62.1000366,117.8200073-62.1900024,19.210022-.0400391,41.7000122-.3800049,60.7000122.6900024,71.5599976,4.0199585,61.0999756,59.4799805,61.3900146,113.5799561.1099854,21.1100464,1.2799683,43.6500244.0800171,65Z"/>
  <path class="st0" d="M376.0100098,249.539978c-.2900391-54.0999756,10.1699829-109.5599976-61.3900146-113.5799561-19-1.0700073-41.4899902-.7300415-60.7000122-.6900024-54.9199829.0899658-113.7799683-9.6500244-117.8200073,62.1900024-1.2299805,22.0299683-.039978,45.1399536.0900269,67,.3099976,53.789978-9.4299927,107.5999756,61.3900146,111.5799561,21.6799927,1.2200317,44.5100098.0400391,65.9699707-.0799561,53.7600098-.3099976,108.5499878,9.7299805,112.5400391-61.4200439,1.1999512-21.3499756.0299683-43.8899536-.0800171-65ZM328.5599976,276.9899902c-15.9899902,57.7800293-91.8699951,73.3200073-130.4099731,27.4799805-37.0599976-44.0799561-10.7400513-116.6999512,46.7299805-123.1899414,55.1099854-6.2300415,98.7199707,41.3699951,83.6799927,95.7099609ZM344.0200195,192.4500122c-15.1700439,9.8800049-33.9700317-8.1400146-24.8000488-23.7999878,2.1200562-3.6199951,7.4000244-7.7000122,11.5900269-8.4100342,19.8099976-3.3300171,29.4099731,21.6600342,13.210022,32.210022Z"/>
  <path d="M344.0200195,192.4500122c-15.1700439,9.8800049-33.9700317-8.1400146-24.8000488-23.7999878,2.1200562-3.6199951,7.4000244-7.7000122,11.5900269-8.4100342,19.8099976-3.3300171,29.4099731,21.6600342,13.210022,32.210022Z"/>
  <path d="M244.8800049,181.2800293c-57.4700317,6.4899902-83.789978,79.1099854-46.7299805,123.1899414,38.539978,45.8400269,114.4199829,30.3000488,130.4099731-27.4799805,15.039978-54.3399658-28.5700073-101.9400024-83.6799927-95.7099609ZM260.5800171,304.9799805c-63.9000244,5.3699951-72.8300171-90.2099609-10.7000122-97.6999512,66.2299805-7.9800415,74.8800049,92.3099976,10.7000122,97.6999512Z"/>
  <path class="st0" d="M260.5800171,304.9799805c-63.9000244,5.3699951-72.8300171-90.2099609-10.7000122-97.6999512,66.2299805-7.9800415,74.8800049,92.3099976,10.7000122,97.6999512Z"/>
</svg>