<?xml version="1.0" encoding="UTF-8"?>
<svg id="illu" xmlns="http://www.w3.org/2000/svg" viewBox="0 0 570.307587666980908 64.252939792164398">
  <path d="M0,1.54078772721914h32.468092514330237c9.708357059530499,0,16.948664999429639,1.770860102775259,21.717437874630377,5.312580308336692,4.768772875199829,3.541720205559614,7.153159312800199,8.770637831879867,7.153159312800199,15.679780988779385,0,4.399262696279038-.871486271050344,7.968870462509585-2.610972868070348,10.708823298700736-1.742972542110692,2.739952836178418-4.298170288830079,4.943070129409534-7.669079185260671,6.595408099319684l14.905901180080036,22.874771642589621h-23.47435419706926l-11.392068535200451-18.677693761199407h-10.538011989569895v18.677693761199407H0V1.54078772721914ZM40.436962976840732,22.707446278545831c0-2.175229732540174-.714618742270432-3.6881298990902-2.143856226790376-4.545672389811443-1.425751539450175-.857542490719425-3.740419075360478-1.282827790988449-6.937030717579546-1.282827790988449h-10.795971925800586v11.824325725639937h10.621674671589972c3.255872708650713,0,5.612371585580149-.432257190441305,7.069496630780122-1.289799681149816,1.457125045199973-.857542490721244,2.185687567800414-2.426217778611317,2.185687567800414-4.706025863690229Z"/>
  <path d="M69.474885528310551,32.126469896085837c0-6.734845902701636,1.502442331289785-12.507570962150567,4.500355103719812-17.30423139802042,2.997912772420023-4.796660435880767,7.323970621920125-8.463874664470495,12.978173548509403-11.008614575939646,5.654202926591097-2.537768021304146,12.392534774370688-3.813623922125771,20.218481488420366-3.813623922125771,7.766685647620761,0,14.421354813380276,1.275855900821625,19.960521552189675,3.813623922125771,5.539166738810309,2.544739911469151,9.795505686630349,6.211954140058879,12.765530898380348,11.008614575939646,2.970025211749999,4.796660435869853,4.455037817619996,10.569385495318784,4.455037817619996,17.30423139802042,0,6.741817792859365-1.498956386209102,12.507570962139653-4.496869158629124,17.304231398018601-2.997912772420023,4.796660435869853-7.313512786680803,8.470846554630043-12.936342207511188,11.008614575930551-5.62631536590925,2.544739911480065-12.382076939109538,3.813623922129409-20.263798774509269,3.813623922129409-7.707424581190025,0-14.348149966610436-1.268884010649344-19.915204266100773-3.813623922129409-5.570540244569202-2.537768021300508-9.840822972719252-6.211954140060698-12.810848184469251-11.008614575930551-2.970025211749999-4.796660435878948-4.455037817619996-10.562413605159236-4.455037817619996-17.304231398018601ZM92.436805798000933,32.126469896085837c0,4.629335071829701,1.268884010659349,8.198942838058429,3.810137977049635,10.708823298689822,2.541253966380282,2.516852350800036,6.09691795227991,3.771792581119371,10.666991957679784,3.771792581119371s8.125737991290407-1.254940230319335,10.666991957689788-3.771792581119371c2.541253966380282-2.509880460631393,3.813623922120314-6.079488226860121,3.813623922120314-10.708823298689822,0-4.622363181670153-1.272369955740032-8.191970947889786-3.813623922120314-10.708823298700736-2.541253966399381-2.509880460629574-6.096917952289914-3.764820690950728-10.666991957689788-3.764820690950728s-8.125737991299502,1.254940230321154-10.666991957679784,3.764820690950728c-2.541253966390286,2.51685235081095-3.810137977049635,6.086460117030583-3.810137977049635,10.708823298700736Z"/>
  <path d="M154.803849299610192,1.54078772721914h33.754406250410284c17.760890204050156,0,26.643078278620123,5.284692747665758,26.643078278620123,15.854078242995456,0,5.709978047931145-3.200097587309756,9.990718611339616-9.596806816830394,12.84919358039042,7.937496956739778,2.628402593500141,11.907988407660014,7.452950590050023,11.907988407660014,14.480615879820107,0,5.877303411969478-2.325125371169634,10.346285009929488-6.982348003670268,13.406944793869116-4.653736687419951,3.05368789376007-11.43389987620958,4.58053184065102-20.343975511449571,4.58053184065102h-35.382342604740188V1.54078772721914ZM192.842482058520545,16.8371147567359c-1.087614866280092-.655357675830601-2.886362529730832-.990008403920001-5.399728935450185-.990008403920001h-12.591233644159729v8.910075635249086h12.849193580399515c4.510812938970048,0,6.766219408449615-1.512900166550025,6.766219408449615-4.538700499639162,0-1.596562848570102-.540321488058908-2.726009055861141-1.624450409239216-3.381366731689923ZM196.610788694550138,43.009590448984454c0-1.88938223563855-.672787401250389-3.24192892830979-2.014876258679578-4.0715838583601-1.342088857420094-.829654930039396-3.527776425220509-1.240996449969316-6.553576758309646-1.240996449969316h-13.190816198650282v10.708823298689822h13.361627507769299c3.029286278180734,0,5.183600340220437-.411341519939015,6.469914076300483-1.24099644998023,1.286313736070042-.829654930039396,1.927727631569724-2.217061073559307,1.927727631569724-4.155246540380176Z"/>
  <path d="M225.223425945750932,32.126469896085837c0-6.734845902701636,1.502442331289785-12.507570962150567,4.500355103709808-17.30423139802042,2.997912772420023-4.796660435880767,7.32397062193013-8.463874664470495,12.978173548519408-11.008614575939646,5.654202926590187-2.537768021304146,12.392534774360684-3.813623922125771,20.218481488420366-3.813623922125771,7.766685647609847,0,14.421354813370272,1.275855900821625,19.960521552189675,3.813623922125771,5.539166738810309,2.544739911469151,9.795505686630349,6.211954140058879,12.765530898370343,11.008614575939646,2.970025211749999,4.796660435869853,4.455037817619996,10.569385495318784,4.455037817619996,17.30423139802042,0,6.741817792859365-1.498956386200007,12.507570962139653-4.496869158630034,17.304231398018601-2.997912772420023,4.796660435869853-7.313512786669889,8.470846554630043-12.936342207500275,11.008614575930551-5.626315365920163,2.544739911480065-12.382076939120452,3.813623922129409-20.263798774520183,3.813623922129409-7.707424581189116,0-14.348149966609526-1.268884010649344-19.915204266089859-3.813623922129409-5.570540244569202-2.537768021300508-9.840822972730166-6.211954140060698-12.81084818447016-11.008614575930551-2.970025211749089-4.796660435878948-4.455037817619086-10.562413605159236-4.455037817619086-17.304231398018601ZM248.185346215440404,32.126469896085837c0,4.629335071829701,1.268884010650254,8.198942838058429,3.81013797704054,10.708823298689822,2.541253966389377,2.516852350800036,6.096917952289004,3.771792581119371,10.666991957679784,3.771792581119371,4.570074005399874,0,8.125737991299502-1.254940230319335,10.666991957689788-3.771792581119371,2.541253966389377-2.509880460631393,3.813623922119405-6.079488226860121,3.813623922119405-10.708823298689822,0-4.622363181670153-1.272369955730028-8.191970947889786-3.813623922119405-10.708823298700736-2.541253966390286-2.509880460629574-6.096917952289914-3.764820690950728-10.666991957689788-3.764820690950728-4.570074005390779,0-8.125737991290407,1.254940230321154-10.666991957679784,3.764820690950728-2.541253966390286,2.51685235081095-3.81013797704054,6.086460117030583-3.81013797704054,10.708823298700736Z"/>
  <path d="M338.398119049719753,41.894088022034339l13.277964825760137-40.353300294815199h23.561502824180934l-23.561502824180934,61.171364337726118h-26.901038214849905L301.304177408640498,1.54078772721914h24.070450806470035l13.02349083460922,40.353300294815199Z"/>
  <path d="M390.310813243781013,62.712152064945258h-22.271703143020204L393.39587464331089,1.54078772721914h26.388604287469207l25.356764542550081,61.171364337726118h-22.787623015479767l-3.255872708659808-8.993738317260068h-25.614724478780772l-3.172210026628818,8.993738317260068ZM406.332216850810255,17.820151270485439l-7.111327971789251,19.70256161594989h14.135507316469557l-7.024179344680306-19.70256161594989Z"/>
  <path d="M452.336234127140415,1.54078772721914h22.100891833890273v43.434875749266212h32.900349704779728l-2.056707599689616,17.736488588459906h-52.944533938980385V1.54078772721914Z"/>
  <path d="M523.100919336609877,40.269637612806036L498.002114730290486,1.54078772721914h23.558016879100251l12.849193580399515,21.766241105815425,12.936342207500275-21.766241105815425h22.961920269690381l-25.102290551390979,38.638215313396358v22.533149024329759h-22.104377778980052v-22.442514452139221Z"/>
</svg>