<?xml version="1.0" encoding="UTF-8"?>
<svg id="illu" xmlns="http://www.w3.org/2000/svg" viewBox="0 0 68.839296157311765 73.355259701294926">
  <defs>
    <style>
      .cls-1 {
        fill: #12120d;
      }
    </style>
  </defs>
  <path class="cls-1" d="M10.674728205376596,10.725477333779054l-.040809314164107,6.090085523275775c-.004919588652228.734163664717926-.604064945790014,1.325332792688641-1.338228610507031,1.320413204033684l-2.655693682271703-.017795651205233c-.734163664719745-.004919588656776-1.325332792689551-.604064945790014-1.320413204035503-1.338228610509759l.040809314162289-6.090085523273956c.00793591601996-1.184298444237356-1.419957036913729-1.78699214934386-2.262994037812859-.955178228505247L.423909337268924,12.372586078656241c-.250966547149801.247625510342914-.393285306943653.584804997133688-.395647776729675.937362822036448L.000029885839467,17.523038900422762c-.002362469785112.352557824899122.135424871662508.691614286628464.383050381999965.942580833778266l4.505244292142379,4.566030384017722c.247625510344733.250966547149801.385412851793262.590023008880962.38305038200906.942580833778266l-.094235778317852,14.063062834631637c-.004919588653138.734163664717926.586249539317578,1.333309021851164,1.320413204035503,1.338228610504302l2.655693682271703.017795651212509c.734163664717016.004919588651319,1.333309021852983-.586249539319397,1.338228610507031-1.320413204037322l.094235778316943-14.063062834629818c.002362469786021-.352557824897303.144681229579874-.689737311691715.395647776728765-.937362822029172l4.566030384011356-4.505244292149655c.250966547155258-.247625510339276.393285306951839-.584804997133688.395647776735132-.937362822034629l.028231674701601-4.213089999730073c.002362469784202-.352557824900941-.135424871661598-.691614286626645-.383050382002693-.942580833778266l-2.637898031063742-2.673489333479665c-.831813920836794-.843037000908225-2.267655516518062-.259533016931528-2.275591432538022.924765427302191Z"/>
  <path d="M40.156317184041654,8.055725180136506c-.03125,0-.061645507810681.0001220703125-.092895507810681.0003662109375l-3.030517578119543.02203369140625c-.296264648440228-.71966552734375-.390747070319776-.94927978515625-.704833984380457-1.71209716796875,1.3349609375-.72015380859375,2.07080078125-2.26873779296875,1.681762695310681-3.80615234375C37.621160934041654,1.023498617636506,36.240667769980973.000000082480256,34.725042769980973.000000082480256c-.275268554689319-.00006103515625-.555053710939319.03375244140625-.834228515619543.1043701171875-1.8154296875.4593505859375-2.914794921880457,2.303466796875-2.455444335940228,4.11895751953125.388793945309772,1.53631591796875,1.77099609375,2.54833984375,3.28662109375,2.54833984375h.003051757809772l.139404296880457,1.322265625-1.89111328125.01373291015625c-6.9130859375.05029296875-12.4765625,5.6951904296875-12.42626953125,12.60821533203125l.015380859369543,2.114501953125c.033813476560681,4.631591796875,3.799072265630457,8.36322021484375,8.422973632810681,8.36322021484375.02099609375,0,.041625976569776-.0001220703125.062622070319776-.000244140625l15.27587890625-.111083984375c4.652587890619543-.0338134765625,8.39697265625-3.83294677734375,8.363037109369543-8.48553466796875l-.015380859369543-2.114501953125c-.050048828130457-6.88177490234375-5.644897460940228-12.426513671875-12.515258789069776-12.426513671875ZM31.678656051230973,18.723816000449006h-.0078125c-.589477539059772,0-1.073974609369543-.48004150390625-1.078369140619543-1.0704345703125l-.02294921875-3.1739501953125c-.00439453125-.59307861328125.477294921869543-1.08184814453125,1.0703125-1.08612060546875h.007934570309772c.589477539059772-.00006103515625,1.073852539059772.47998046875,1.078247070309772,1.0704345703125l.023071289060681,3.1739501953125c.004272460939319.593017578125-.477416992180224,1.081787109375-1.070434570310681,1.08612060546875ZM41.624945113730973,18.651428305136506h-.007934570309772c-.589599609379547,0-1.073852539059772-.47998046875-1.078247070309772-1.07037353515625l-.023071289069776-3.1739501953125c-.004272460930224-.59307861328125.477416992189319-1.08184814453125,1.070434570319776-1.08612060546875.002685546869543,0,.005249023430224-.00006103515625.007934570309772-.00006103515625.589477539059772,0,1.073852539059772.48004150390625,1.078247070309772,1.07049560546875l.02294921875,3.1739501953125c.00439453125.593017578125-.477294921869543,1.081787109375-1.0703125,1.0860595703125Z"/>
  <path d="M40.413275446001535,57.870927275371287h-7.592651367190228c-6.787475585929315,0-12.289794921869543-5.5023193359375-12.289794921869543-12.289794921875s5.502319335940228-12.289794921875,12.289794921869543-12.289794921875h7.592651367190228c6.787475585940228,0,12.289794921880457,5.5023193359375,12.289794921880457,12.289794921875s-5.502319335940228,12.289794921875-12.289794921880457,12.289794921875Z"/>
  <path class="cls-1" d="M30.164919366441609,73.355259701174873h-5.352156464340624c-2.098730852649169,0-3.588226757329721-2.045558117028122-2.94391055125925-4.042938355853039l5.352156464339714-16.591685039453296c1.082594900840377-3.356044192603804,6.037200342189863-2.576687258851962,6.037200342189863.949648564923336v16.591685039451477c0,1.708376778338788-1.384913012590005,3.093289790931522-3.093289790929703,3.093289790931522Z"/>
  <path class="cls-1" d="M43.643640356821379,73.35525970105482l5.352156464339714.000000000240107c2.098730852650988.000000000094587,3.588226757420671-2.045558116868051,2.94391055144024-4.042938355722072l-5.352156463600295-16.591685039693402c-1.082594900679396-3.356044192651098-6.037200342069809-2.576687259122991-6.037200342228971.949648564652307l-.000000000740329,16.591685039451477c-.000000000080036,1.708376778338788,1.384913012449942,3.093289790995186,3.09328979078964,3.093289791071584Z"/>
  <path class="cls-1" d="M61.804569817051743,55.648837542785259l5.017233225829841-1.863585140621581c1.967398045289883-.730764068130156,2.651435714200488-3.166949308977564,1.351964583899644-4.814992382853234l-10.794347161750011-13.689837859470572c-2.183401265099747-2.769079857578618-6.556594238109938-.313332409139548-5.328747652189122,2.992335012650074l5.77711393591926,15.553423000093971c.59484538614015,1.601471255864453,2.375311812420478,2.417502756334216,3.976783068290388,1.822657370201341Z"/>
  <path class="cls-1" d="M.372243416108176,32.277424733016232l.876569391608427-5.27988682837713c.343727474874868-2.070391898863818,2.605612372757605-3.204756376873775,4.470496894718053-2.242011908396307l15.491079776365041,7.997251942351795c3.133421843361248,1.617625387307271,1.553129498975068,6.377687195301405-1.925590563188052,5.80014839047908l-16.367649167974378-2.717365113972846c-1.685308736761726-.279795780115819-2.824702111640363-1.872827745321047-2.544906331529091-3.558136482084592Z"/>
</svg>