<?xml version="1.0" encoding="UTF-8"?>
<svg id="illu" xmlns="http://www.w3.org/2000/svg" viewBox="0 0 53.579636679084615 73.35521509303544">
  <defs>
    <style>
      .cls-1 {
        fill: #12120d;
      }
    </style>
  </defs>
  <path class="cls-1" d="M14.90525988821355,73.355215092915387h-5.352156464340624c-2.098730852649169,0-3.588226757329721-2.045558117028122-2.94391055125925-4.042938355853039l5.352156464339714-16.591685039453296c1.082594900840377-3.356044192603804,6.037200342189863-2.576687258851962,6.037200342189863.949648564923336v16.591685039451477c0,1.708376778338788-1.384913012590005,3.093289790931522-3.093289790929703,3.093289790931522Z"/>
  <path class="cls-1" d="M28.38398087859332,73.355215092795333l5.352156464339714.000000000240107c2.098730852650988.000000000094587,3.588226757420671-2.045558116868051,2.94391055144024-4.042938355722072l-5.352156463600295-16.591685039693402c-1.082594900679396-3.356044192651098-6.037200342069809-2.576687259122991-6.037200342228971.949648564652307l-.000000000740329,16.591685039451477c-.000000000080036,1.708376778338788,1.384913012449942,3.093289790995186,3.09328979078964,3.093289791071584Z"/>
  <path class="cls-1" d="M46.544910338823684,55.648792934525773l5.017233225829841-1.863585140621581c1.967398045289883-.730764068130156,2.651435714200488-3.166949308977564,1.351964583899644-4.814992382853234l-10.794347161750011-13.689837859470572c-2.183401265099747-2.769079857578618-6.556594238109938-.313332409139548-5.328747652189122,2.992335012650074l5.77711393591926,15.553423000093971c.59484538614015,1.601471255864453,2.375311812420478,2.417502756334216,3.976783068290388,1.822657370201341Z"/>
  <g>
    <path class="cls-1" d="M19.867127448623251,39.105224938686661c1.62969970703125-.5126953125,2.53521728515625-2.2493896484375,2.02252197265625-3.8790283203125l-1.60626220703125-5.10546875c-.42724609375-1.3582763671875-1.6689453125-2.16650390625-2.957763671875-2.16650390625-.1356201171875,0-.271728515625.0123291015625-.407470703125.0306396484375.1083984375.2669677734375.233642578125.5262451171875.388427734375.767578125.099365234375.155029296875.207763671875.30419921875.3248291015625.4464111328125s.2425537109375.2777099609375.3758544921875.405517578125l-.209716796875,1.5596923828125h.0001220703125l-1.2061767578125,8.9716796875,3.275634765625-1.030517578125Z"/>
    <path class="cls-1" d="M20.167176276748251,40.059082360561661l-3.722900390625,1.1712646484375-.01171875.08740234375c-.09326171875.6934814453125.382080078125,1.335205078125,1.07275390625,1.4481201171875l1.966796875.3216552734375c.070556640625.0115966796875.140869140625.01708984375.210205078125.01708984375.60888671875,0,1.14892578125-.4312744140625,1.267822265625-1.048095703125l.5198974609375-2.6951904296875c-.38531494140625.3037109375-.8206787109375.546142578125-1.3028564453125.69775390625Z"/>
    <path class="cls-1" d="M21.964844733779501,21.668335290249161c-.25360107421875-.04150390625-.5059814453125-.0615234375-.7548828125-.0615234375-.27935791015625,0-.55450439453125.0252685546875-.82281494140625.073974609375-1.8790283203125.3406982421875-3.4276123046875,1.8280029296875-3.75341796875,3.8203125-.0640869140625.3922119140625-.076904296875.7808837890625-.0435791015625,1.1590576171875.0106201171875.120361328125.03369140625.2374267578125.0535888671875.35546875.22412109375-.0382080078125.451416015625-.0614013671875.681884765625-.0614013671875,1.80029296875,0,3.372314453125,1.15185546875,3.91168212890625,2.866455078125l1.28509521484375,4.0845947265625.6661376953125-3.45361328125c1.3370361328125-.62939453125,2.3524169921875-1.883544921875,2.60894775390625-3.4521484375.41375732421875-2.530517578125-1.3021240234375-4.9173583984375-3.8326416015625-5.3311767578125Z"/>
  </g>
  <g>
    <path d="M37.411927253310751,20.482178063686661c-.050048828125-6.8818359375-5.6448974609375-12.426513671875-12.5152587890625-12.426513671875-.03125,0-.0616455078125.0001220703125-.0928955078125.0003662109375l-3.030517578125.0220947265625c-.2962646484375-.7197265625-.3907470703125-.9493408203125-.704833984375-1.712158203125,1.3349609375-.72021484375,2.07080078125-2.268798828125,1.6817626953125-3.80615234375C22.361512214248251,1.023437829311661,20.981019050185751.000000329311661,19.465394050185751.000000329311661c-.2752685546875-.0001220703125-.5550537109375.03369140625-.834228515625.104248046875-1.8154296875.45947265625-2.914794921875,2.303466796875-2.4554443359375,4.1190185546875.3887939453125,1.5362548828125,1.77099609375,2.54833984375,3.28662109375,2.54833984375h.0030517578125l.139404296875,1.322265625-1.89111328125.0137939453125c-6.9130859375.05029296875-12.4765625,5.695068359375-12.42626953125,12.608154296875l.015380859375,2.114501953125c.0262451171875,3.60107421875,2.3126220703125,6.649169921875,5.5001220703125,7.831298828125l4.161865234375-2.951416015625c.225830078125-.16015625.467529296875-.2862548828125.715087890625-.396484375-.1239013671875-.643310546875-.1416015625-1.31005859375-.032958984375-1.9739990234375.448486328125-2.742431640625,2.7880859375-4.73291015625,5.56304931640625-4.73291015625.304931640625,0,.61322021484375.0250244140625.916259765625.0745849609375,3.07061767578125.502197265625,5.16021728515625,3.4088134765625,4.65814208984375,6.4794921875-.271484375,1.66015625-1.26806640625,3.1025390625-2.7044677734375,3.949462890625l-.0015869140625.008056640625,4.9859619140625-.0361328125c4.652587890625-.033935546875,8.39697265625-3.8330078125,8.363037109375-8.485595703125l-.015380859375-2.114501953125ZM16.419007331435751,18.723755212124161h-.0078125c-.5894775390625,0-1.073974609375-.4801025390625-1.078369140625-1.0704345703125l-.02294921875-3.1739501953125c-.00439453125-.5931396484375.477294921875-1.0819091796875,1.0703125-1.0860595703125h.0079345703125c.5894775390625-.0001220703125,1.0738525390625.47998046875,1.0782470703125,1.0703125l.0230712890625,3.174072265625c.0042724609375.593017578125-.4774169921875,1.081787109375-1.0704345703125,1.0860595703125ZM26.365296393935751,18.651367516811661h-.0079345703125c-.589599609375,0-1.0738525390625-.47998046875-1.0782470703125-1.0703125l-.0230712890625-3.174072265625c-.0042724609375-.593017578125.4774169921875-1.081787109375,1.0704345703125-1.0860595703125.002685546875,0,.0052490234375-.0001220703125.0079345703125-.0001220703125.5894775390625,0,1.0738525390625.4801025390625,1.0782470703125,1.070556640625l.02294921875,3.1739501953125c.00439453125.593017578125-.477294921875,1.081787109375-1.0703125,1.0860595703125Z"/>
    <path d="M12.024964362685751,31.020996423061661c.549560546875.11279296875,1.1182861328125.172607421875,1.7008056640625.172607421875.02099609375,0,.0416259765625-.000244140625.0626220703125-.000244140625l2.9991455078125-.0218505859375.1650390625-1.2266845703125c-.4312744140625-.497802734375-.763671875-1.063232421875-.996337890625-1.665771484375-.1409912109375.070556640625-.2791748046875.1519775390625-.412841796875.246826171875l-3.5184326171875,2.4951171875Z"/>
  </g>
  <path class="cls-1" d="M21.889649421279501,35.226196618374161l-1.60626220703125-5.10546875c-.42724609375-1.3582763671875-1.6689453125-2.16650390625-2.957763671875-2.16650390625-.61083984375,0-1.23193359375.1812744140625-1.7822265625.5716552734375L1.322693854873251,38.610596032436661c-2.580078125,1.8297119140625-1.051025390625,5.633056640625,1.71875,5.633056640625.318115234375,0,.65234375-.0501708984375.998779296875-.1591796875l15.826904296875-4.979248046875c1.62969970703125-.5126953125,2.53521728515625-2.2493896484375,2.02252197265625-3.8790283203125Z"/>
  <g>
    <path d="M16.495423347060751,33.345093102749161c-5.6417236328125.485595703125-10.1837158203125,4.7803955078125-11.0595703125,10.3004150390625l10.1021728515625-3.17822265625.9573974609375-7.1221923828125Z"/>
    <path d="M25.153626472060751,33.291260094936661h-1.494384765625l-1.7271728515625,8.9544677734375c-.20758056640625,1.0771484375-1.15380859375,1.85888671875-2.249755859375,1.85888671875-.12255859375,0-.246826171875-.009765625-.37158203125-.0301513671875l-1.966796875-.3216552734375c-1.1103515625-.1815185546875-1.890869140625-1.1151123046875-1.9156494140625-2.2027587890625l-10.1165771484375,3.1826171875c-.019287109375.2813720703125-.04052734375.562255859375-.04052734375.848388671875,0,6.7874755859375,5.5023193359375,12.289794921875,12.289794921875,12.289794921875h7.5926513671875c6.7874755859375,0,12.289794921875-5.5023193359375,12.289794921875-12.289794921875s-5.5023193359375-12.289794921875-12.289794921875-12.289794921875Z"/>
  </g>
</svg>