<?xml version="1.0" encoding="UTF-8"?>
<svg id="illu" xmlns="http://www.w3.org/2000/svg" viewBox="0 0 79.580337828055235 73.355259701294926">
  <defs>
    <style>
      .cls-1 {
        fill: #12120d;
      }
    </style>
  </defs>
  <path class="cls-1" d="M76.356917659875762,28.145794700896658l-.620733312653101-.798612118000165c-.386157906193148-.496816228578609-.453636103406097-1.159443116994225-.213071571653927-1.740883569276775.002600668269224-.006285771740295.0051952033009-.012574734681039.007783602917698-.018866879767302.239847632670717-.583046024210489.757159618464357-1.005192355110921,1.382716355714365-1.083603589839186l1.00394150939519-.125840373315441c.950010713449046-.11908034652879,1.662783567416227-.926774262472463,1.662783573887282-1.884219030900567l.000000010571966-1.563748194328582c.000000006471964-.957451331376433-.712782318420977-1.765148646161833-1.662800618205438-1.884221237596648l-1.003909463662239-.125827156620289c-.625571899216084-.078407402452285-1.14290170579261-.500563505982427-1.38274186072249-1.08362835823209-.002587859663436-.00629123181352-.005181849465771-.0125792842191-.00778196714964-.018864148070861-.240537331006635-.581413827863798-.173044144942651-1.24400276977758.2130851336251-1.740796919377317l.620767607636481-.798679957344575c.587548878616872-.755940721679508.520437434567611-1.831050123022578-.156560010400426-2.508054199061007l-1.105780593180498-1.105791424100971c-.677006135912052-.677012767066117-1.752131936590558-.744126639841852-2.508078137390839-.156564782389978l-.798652356210368.620755367745005c-.496793464989423.38613447723219-1.159383212847388.453626583897858-1.740802048333535.213094425760573-.006285946455137-.002600487243399-.01257508256549-.005194842751735-.018867399180635-.00778306436041-.583066913426592-.239833193178129-1.005231034694589-.757154134162192-1.083648225441721-1.382724058532403l-.125861327624079-1.0040535812077c-.119083350627989-.949982547612308-.926755618152129-1.662731427906692-1.884172813090117-1.662731428092229l-1.563806639776885-.00000000030559c-.957442514531067-.000000000185537-1.765127825195123.712785529922257-1.884181077854009,1.662797367567691l-.125806763368018,1.003902974391167c-.078397416551525.625589575281992-.500564435176784,1.142932741253389-1.083644719192307,1.38277822071359-.006301655872448.002592136475869-.01260011852537.005190424759348-.018895378841989.007794862609444-.581424216410596.240543386569698-1.24402486533927.17305607437811-1.740825645193581-.213084088500182l-.798641587968632-.620746998334653c-.755946200492872-.587561857442779-1.831072000925815-.520447984737984-2.508078136605036.15656478220626l-1.105780593815325,1.105791424914059c-.676997445135385.677004076318553-.744108889089148,1.752113478032697-.156560010161229,2.508054199875914l.62075131090387.798658989719115c.386127119526464.496791371630025.453612864977003,1.159372285550489.2130882581896,1.740787569910026-.002597918259198.006279895451371-.005189714826884.012562974441607-.007775387657603.018849227839382-.239836462962558.583087219181834-.757173327287092,1.005266473490337-1.382764535688693,1.083674853836783l-1.003983446445091.125834114789541c-.949997666443778.119067815145172-1.662765464253425.926746815264778-1.662765464286167,1.884177079491565l-.000000000061846,1.563819983175563c-.000000000033651.957423729698348.712758339130232,1.765099363674381,1.662748446334263,1.884174946450003l1.00403314113737.12584955411694c.625566572971366.078411031523501,1.142889575017762.500565672922676,1.38272918754501,1.083625521783688.002588431779259.00629258288609.005182996478652.012581983164637.00778369184718.018868191780712.240540505263198.581416730690762.17305050333016,1.244009831449148-.21308116594264,1.740807057076381l-.620758957073122.798668827754227c-.587551053846255.755943520542132-.520436680209968,1.831057512132247.156566586932058,2.508060779045991l1.1057775691188,1.105777568744088c.677003266980137.677003266751854,1.752117258219187.744117640331751,2.508060778750405.156566586847475l.798665992809219-.620756753272872c.496789889690262-.386125967250337,1.159369632260677-.453615462018206,1.740782717541151-.213090450122763.00629340958676.002603523125799.012590019649906.005200900261116.018889821081757.00779212924499.583097769489541.239839280173328,1.005280279919134.757190654447186,1.083678705428611,1.382794023986207l.125807227000223,1.003915890052667c.119052278641902.950012786450316.926738011911766,1.662799503537826,1.884181346769765,1.66279950387252l1.563802817492615.000000000551154c.957418014741052.00000000034197,1.765090704881914-.712750066355511,1.884173081163681-1.662733562321591l.125862305969349-1.004070603599757c.07841634592296-.625568927665881.500580543594879-1.142884918559503,1.083643870759261-1.382723954346147.006289921212556-.002587315255369.012576664352309-.005180761500014.018860220264287-.007780336482028.581424456922832-.24054158112267,1.244024211743636-.173055111732538,1.740824621741012.213084764456653l.798648512753971.620752381892089c.755943399858552.587559681822313,1.831064608139968.520448740200663,2.50807155298935-.156558202243104l1.105751837119897-1.105751833203612c.677010620562214-.677010618159329.744118131156029-1.752139043061106.156549819440443-2.508082319054665ZM68.703186043572714,25.577326321143119c-4.385013468390753,2.473033916854547-8.888979642591949-2.030856519819281-6.416044742505619-6.415970314237711.308677599043222-.547360303562527.767950393500541-1.00659770274433,1.315340270733941-1.315222854627791,4.384916142193106-2.472269705118379,8.888221592818809,2.031111443186091,6.415852938111129,6.415927278789241-.308621274535653.54734857166477-.767829471547884,1.006592165987968-1.315148466339451,1.315265890076262Z"/>
  <path d="M35.65040561218666,8.055725180136506c-.03125,0-.061645507810681.0001220703125-.092895507810681.0003662109375l-3.030517578119543.02203369140625c-.296264648440228-.71966552734375-.390747070319776-.94927978515625-.704833984380457-1.71209716796875,1.3349609375-.72015380859375,2.07080078125-2.26873779296875,1.681762695310681-3.80615234375C33.11524936218666,1.023498617636506,31.734756198125979.000000082480256,30.219131198125979.000000082480256c-.275268554689319-.00006103515625-.555053710939319.03375244140625-.834228515619543.1043701171875-1.8154296875.4593505859375-2.914794921880457,2.303466796875-2.455444335940228,4.11895751953125.388793945309772,1.53631591796875,1.77099609375,2.54833984375,3.28662109375,2.54833984375h.003051757809772l.139404296880457,1.322265625-1.89111328125.01373291015625c-6.9130859375.05029296875-12.4765625,5.6951904296875-12.42626953125,12.60821533203125l.015380859369543,2.114501953125c.033813476560681,4.631591796875,3.799072265630457,8.36322021484375,8.422973632810681,8.36322021484375.02099609375,0,.041625976569776-.0001220703125.062622070319776-.000244140625l15.27587890625-.111083984375c4.652587890619543-.0338134765625,8.39697265625-3.83294677734375,8.363037109369543-8.48553466796875l-.015380859369543-2.114501953125c-.050048828130457-6.88177490234375-5.644897460940228-12.426513671875-12.515258789069776-12.426513671875ZM27.172744479375979,18.723816000449006h-.0078125c-.589477539059772,0-1.073974609369543-.48004150390625-1.078369140619543-1.0704345703125l-.02294921875-3.1739501953125c-.00439453125-.59307861328125.477294921869543-1.08184814453125,1.0703125-1.08612060546875h.007934570309772c.589477539059772-.00006103515625,1.073852539059772.47998046875,1.078247070309772,1.0704345703125l.023071289060681,3.1739501953125c.004272460939319.593017578125-.477416992180224,1.081787109375-1.070434570310681,1.08612060546875ZM37.119033541875979,18.651428305136506h-.007934570309772c-.589599609379547,0-1.073852539059772-.47998046875-1.078247070309772-1.07037353515625l-.023071289069776-3.1739501953125c-.004272460930224-.59307861328125.477416992189319-1.08184814453125,1.070434570319776-1.08612060546875.002685546869543,0,.005249023430224-.00006103515625.007934570309772-.00006103515625.589477539059772,0,1.073852539059772.48004150390625,1.078247070309772,1.07049560546875l.02294921875,3.1739501953125c.00439453125.593017578125-.477294921869543,1.081787109375-1.0703125,1.0860595703125Z"/>
  <path d="M35.90736387414654,57.870927275371287h-7.592651367190228c-6.787475585929315,0-12.289794921869543-5.5023193359375-12.289794921869543-12.289794921875s5.502319335940228-12.289794921875,12.289794921869543-12.289794921875h7.592651367190228c6.787475585940228,0,12.289794921880457,5.5023193359375,12.289794921880457,12.289794921875s-5.502319335940228,12.289794921875-12.289794921880457,12.289794921875Z"/>
  <path class="cls-1" d="M25.659007794586614,73.355259701174873h-5.352156464340624c-2.098730852649169,0-3.588226757329721-2.045558117028122-2.94391055125925-4.042938355853039l5.352156464339714-16.591685039453296c1.082594900840377-3.356044192603804,6.037200342189863-2.576687258851962,6.037200342189863.949648564923336v16.591685039451477c0,1.708376778338788-1.384913012590005,3.093289790931522-3.093289790929703,3.093289790931522Z"/>
  <path class="cls-1" d="M39.137728784966384,73.35525970105482l5.352156464339714.000000000240107c2.098730852650988.000000000094587,3.588226757420671-2.045558116868051,2.94391055144024-4.042938355722072l-5.352156463600295-16.591685039693402c-1.082594900679396-3.356044192651098-6.037200342069809-2.576687259122991-6.037200342228971.949648564652307l-.000000000740329,16.591685039451477c-.000000000080036,1.708376778338788,1.384913012449942,3.093289790995186,3.09328979078964,3.093289791071584Z"/>
  <path class="cls-1" d="M65.185242522857152,47.554548410435018l3.200171669187512-4.290044301220405c1.254877180944277-1.682246846521593.505853423140252-4.099242806480106-1.480406180894533-4.777065775413575l-16.499309002979317-5.630487873282618c-3.337359046408892-1.138893734041631-5.675129303420363,3.298486409143152-2.848579480782973,5.406959895386535l13.299137333791805,9.920532174504842c1.36935683982756,1.021475923353137,3.307509738316185.739462719850053,4.328985661677507-.629894119974779Z"/>
  <path class="cls-1" d="M6.926344016739677,54.587485323014334l-4.974013822076813-1.976047903408471c-1.950450503357388-.774863875671144-2.57947777708705-3.225829144528689-1.243239422389706-4.844204333188827l11.099762322632159-13.443394945037653c2.245178400729856-2.719231194841996,6.561985928160539-.165667982235391,5.260041831852504,3.111523790008505l-6.125748500553527,15.419442848446124c-.630742836758145,1.587675877077345-2.429126532384544,2.36342337993301-4.016802409464617,1.732680543180322Z"/>
</svg>