<?xml version="1.0" encoding="UTF-8"?>
<svg id="illu" xmlns="http://www.w3.org/2000/svg" viewBox="0 0 30.736641088879878 22.249980966340445">
  <defs>
    <style>
      .cls-1 {
        fill: #faf9f9;
      }
    </style>
  </defs>
  <path class="cls-1" d="M17.8212989891299,22.249952346059217l1.416930516430511-.007180284568676c1.412848142219445-.007159597169448,2.765793923019373-.571571024260265,3.76486318373918-1.570596421899609l6.440600597929915-6.440317830200001c1.72393040219049-1.723854714860863,1.72393040219049-4.518855712831282,0-6.242710427690326l-6.418763822429355-6.418482013419634C22.012941981220138.558722314930492,20.638464144859427-.006755993519619,19.20734537278986.000060926640799l-1.370370768539942.00652755613919c-1.792586924369971.008538719630451-2.684434313289785,2.176167688839996-1.416897994709871,3.443760869720791l1.972056825779873,1.972145293198992c1.022480319319584,1.022526188280608.298285097670487,2.77083265686997-1.147752871790544,2.77083265686997H1.623131271529928c-.896430648230307,0-1.623131271529928.726700623290526-1.623131271529928,1.623131271540842v2.753737456179806c0,.896430648930618.726700623359648,1.623131273030594,1.623131272289356,1.623131273940089l15.455622015490007.000000015750629c1.446034830440112.000000001478838,2.170231477320158,1.748299980648881,1.147757485450711,2.770828056938626l-1.841947423430611,1.842044854420237c-1.274289990109537,1.274357394500839-.365407070909896,3.452884459129564,1.436735639330436,3.443752114719246Z"/>
</svg>