<?xml version="1.0" encoding="UTF-8"?>
<svg id="Calque_1" xmlns="http://www.w3.org/2000/svg" version="1.1" viewBox="0 0 24 24">
  <!-- Generator: Adobe Illustrator 30.1.0, SVG Export Plug-In . SVG Version: 2.1.1 Build 136)  -->
  <defs>
    <style>
      .st0 {
        fill: none;
        stroke: #faf9f9;
        stroke-linecap: round;
        stroke-linejoin: round;
        stroke-width: 2px;
      }
    </style>
  </defs>
  <path class="st0" d="M10.5,3l-2.5,6,4,13,4-13-2.5-6"/>
  <path class="st0" d="M17,3c.6,0,1.2.3,1.6.8l3,4c.5.7.5,1.7,0,2.4l-8,11c-.6.9-1.9,1.1-2.8.5-.2-.1-.3-.3-.5-.5L2.4,10.2c-.5-.7-.5-1.7,0-2.4l3-4c.4-.5,1-.8,1.6-.8h10Z"/>
  <path class="st0" d="M2,9h20"/>
</svg>