<?xml version="1.0" encoding="UTF-8"?>
<svg id="Calque_1" xmlns="http://www.w3.org/2000/svg" version="1.1" viewBox="0 0 24 24">
  <!-- Generator: Adobe Illustrator 30.1.0, SVG Export Plug-In . SVG Version: 2.1.1 Build 136)  -->
  <defs>
    <style>
      .st0 {
        fill: none;
        stroke: #faf9f9;
        stroke-linecap: round;
        stroke-linejoin: round;
        stroke-width: 2px;
      }
    </style>
  </defs>
  <path class="st0" d="M15,12l-9.4,9.4c-.8.8-2.2.8-3,0s-.8-2.2,0-3l9.4-9.4"/>
  <path class="st0" d="M18,15l4-4"/>
  <path class="st0" d="M21.5,11.5l-1.9-1.9c-.4-.4-.6-.9-.6-1.4v-.3c0-.5-.2-1-.6-1.4l-1.7-1.7c-1.1-1.1-2.6-1.8-4.2-1.8h-3.5l1.2,1.2c1.1,1.1,1.8,2.7,1.8,4.2v1.5l2,2h1.2c.5,0,1,.2,1.4.6l1.9,1.9"/>
</svg>