<?xml version="1.0" encoding="UTF-8"?>
<svg id="illu" xmlns="http://www.w3.org/2000/svg" viewBox="0 0 48.00634765625 48.006164550779431">
  <defs>
    <style>
      .cls-1 {
        fill: #faf9f9;
      }
    </style>
  </defs>
  <path class="cls-1" d="M36.81161751216041,45.140128561270103l8.328634083690304-8.328561777729192c1.835129630039773-1.835113698160058,2.866096060399286-4.324071557330171,2.866096060399286-6.919325503329674v-11.778318009641225c0-2.595253945999502-1.030966430359513-5.084211805169616-2.866096060399286-6.919325503329674l-8.328634083690304-8.328561777731011c-1.835108814059822-1.835092882358367-4.32404092454999-2.866035989509328-6.919265432440625-2.866035989509328h-11.778356503189571c-2.595224507889725,0-5.084156618379893,1.030943107150961-6.919265432439715,2.866035989509328L2.866096060400196,11.194597767240339c-1.835129630039773,1.835113698160058-2.866096060400196,4.324071557330171-2.866096060400196,6.919325503329674v11.778318009641225c0,2.595253945999502,1.030966430360422,5.084211805169616,2.866096060400196,6.919325503329674l8.328634083690304,8.328561777729192c1.835108814059822,1.835092882369281,4.32404092454999,2.866035989509328,6.919265432439715,2.866035989509328h11.778356503189571c2.595224507890634,0,5.084156618380803-1.030943107149142,6.919265432440625-2.866035989509328ZM22.897854305750116,15.184760313959487c6.078681314210371-.996707388969298,11.259157642080027,4.184003585600294,10.26224299794012,10.262523808080005-.603715991190256,3.681057232581225-3.572479007239963,6.650029074389749-7.25346925328995,7.254153363021032-6.079223000569982.997722358710234-11.260790071049996-4.183807038431041-10.263103736790072-10.263202471460318.604098673649787-3.681071486660585,3.573175143869776-6.649884208949516,7.254329992139901-7.253474699640719Z"/>
</svg>