<?xml version="1.0" encoding="UTF-8"?>
<svg id="illu" xmlns="http://www.w3.org/2000/svg" viewBox="0 0 30.736641088869874 22.249980966340445">
  <defs>
    <style>
      .cls-1 {
        fill: #faf9f9;
      }
    </style>
  </defs>
  <path class="cls-1" d="M17.8212989891299,22.249952346059217l1.416930516430511-.007180284559581c1.412848142219445-.007159597169448,2.765793923019373-.571571024260265,3.76486318374009-1.570596421899609l6.440600597929915-6.440317830200001c1.72393040218958-1.723854714869958,1.72393040218958-4.518855712840377,0-6.242710427699421l-6.418763822430265-6.418482013410539C22.012941981220138.558722314930492,20.638464144860336-.006755993510524,19.20734537278986.000060926649894l-1.370370768539942.00652755613919c-1.792586924369971.008538719630451-2.684434313289785,2.176167688830901-1.416897994709871,3.443760869711696l1.972056825779873,1.972145293198992c1.022480319320493,1.022526188289703.298285097670487,2.770832656879065-1.147752871789635,2.770832656879065H1.623131271529928c-.896430648229398,0-1.623131271529928.726700623290526-1.623131271529928,1.623131271531747v2.753737456188901c0,.896430648919704.726700623360557,1.623131273019681,1.623131272290266,1.623131273930994l15.455622015490007.000000015759724c1.446034830440112.000000001469743,2.170231477320158,1.748299980639786,1.147757485449802,2.770828056929531l-1.841947423429701,1.842044854429332c-1.274289990110447,1.274357394500839-.365407070909896,3.452884459131383,1.436735639329527,3.443752114710151Z"/>
</svg>