<?xml version="1.0" encoding="UTF-8"?>
<svg id="illu" xmlns="http://www.w3.org/2000/svg" viewBox="0 0 48.137207042519549 48.137268066559045">
  <defs>
    <style>
      .cls-1 {
        fill: #faf9f9;
      }
    </style>
  </defs>
  <path class="cls-1" d="M42.359374016189577,35.601087749879298l-1.11263603478983-1.431475646939361c-.692170361719946-.890520336701229-.813121939880148-2.078248687421365-.381921034009792-3.120454069519838.004661578769628-.011266957970292.009312163990217-.022539636020156.013951751760032-.033818017920566.429915897099818-1.045083296250596,1.357173939950371-1.801761261071078,2.478455742430015-1.942309808269783l1.79951917740982-.22556310597065c1.70285069558031-.213446067549739,2.9804633929798-1.661200421380272,2.980463404580405-3.377376320049734l.000000018949322-2.802947022310036c.000000011600605-1.716187662450466-1.277629661999526-3.163948108549448-2.980493955739803-3.377380275449468l-1.799461736900412-.225539415650928c-1.121308979609239-.140541678019872-2.048598965398924-.897237159830183-2.47850145898974-1.942354204478761-.00463861992921-.011276744900897-.009288227849538-.022547790860699-.013948819719189-.033813121481217-.431152149780246-1.042157659048826-.310173704790941-2.229817992400058.381945343219741-3.120298753539828l1.112697506979202-1.431597245858939c1.053154456551056-1.354989123290579.932860266641001-3.282073487691378-.280626648559519-4.49557228878075l-1.982061071100361-1.982080485029655c-1.213502493319538-1.213514379360277-3.140616252780092-1.333812922650395-4.495615197140069-.280635202130725l-1.431547772089289,1.112675567530459c-.89047953401041.69212836637962-2.078141311980289.813104876599027-3.120307946960565.381961998949919-.011267271139332-.004661254290113-.022540259589732-.009311517720562-.033818948949374-.013950786420537-1.045120739209779-.429890014969715-1.801830592449733-1.357164109589576-1.942389815540082-2.478469549379952l-.225600665610727-1.799720060998879C28.634024403159856,1.277569726569709,27.186308853129958.000000000880391,25.470182378679965.000000000549335l-2.803051783100273-.000000000549335c-1.716171858659436-.000000000331056-3.163910787920031,1.277635418469799-3.377308290950168,2.980488129120204l-.22550286168007,1.799450105179858c-.140523778749412,1.121340663148658-.897238825369641,2.048654595038897-1.942383530749794,2.478566632609727-.011295429550046.00464628591908-.022585135399822.009303598670158-.033869101209348.013971934240544-1.042176280040621.43116300409929-2.229857597680166.310195087758984-3.120350243250869-.381943469881662l-1.431528470509875-1.112660565748229c-1.354998943809733-1.053177720501481-3.282112702829181-.93287917734051-4.495615195729442.280635201799669l-1.982061072239958,1.982080486488485c-1.213486915500653,1.213498801591413-1.333781105239723,3.1405831666616-.280626648130237,4.495572290241398l1.11266829583019,1.431559662349173c.692115178029781.89047578175996.81308028605963,2.078121725300662.38195094385992,3.120281995050391-.004656649500248.011256424990279-.009302326149736.022518556330397-.013937026280473.033786377649449-.429895875910006,1.045157136350099-1.357198512389914,1.801894114871175-2.478542102829124,1.942437545720168l-1.799594347650782.225551887850088C1.27760363463949,19.503201818290108.000000000170076,20.950929436188744.000000000110049,22.667079336739334l-.000000000110049,2.803075700530826c-.000000000060027,1.716138187708566,1.277586680219429,3.163859771950229,2.98040044004938,3.377297300688952l1.799683423110764.22557956214041c1.121299432559681.140548182960629,2.048577221539745.897241043969188,2.478478742899824,1.942349120270592.004639645419957.011279166639724.00929028381961.022552628599442.013951911159893.03382036965013.43115783948997,1.042162862229816.310185101910065,2.229830650119766-.381938231330423,3.12031692490018l-1.112682001239591,1.431577296578325c-1.053158355549385,1.354994140121562-.932858914489771,3.282086732331663.280638436690424,4.495584083100766l1.982055650609254,1.982055649939866c1.213497350890066,1.213497350479884,3.140589942469887,1.333796791439454,4.495584082570531.280638436539448l1.431572215069536-1.112678051029434c.890473125450626-.692113112629158,2.078116969400071-.813084941139095,3.120273297400672-.381954872800634.011280648459433.004666695969718.022567033629457.009322375530246.033859139179185.013967034810776,1.045176047290624.429900925630136,1.801918862260209,1.357229570528943,1.942444449520735,2.478594959249676l.22550369271994,1.799473255910925c.213395757149556,1.702854411340013,1.661135443910098,2.980491957749109,3.377308772969627,2.980491958349376l2.8030449318303.00000000098953c1.716127943909669.00000000061118,3.163844251459523-1.277571851649554,3.377293957250004-2.980373761140072l.225602419249299-1.799750572859921c.140557708780761-1.121303653239011.897267698970609-2.048568875048659,1.94238200997097-2.478469362629767.011274395709734-.004637644100512.022543094869434-.009286277720093.033806081069997-.013945896820587,1.042176711149295-.431159767918871,2.229856426140032-.310193362260179,3.120348408760037.381944681501409l1.43154088286974,1.112670215528851c1.354993923800066,1.053173820801021,3.282099451599606.932880531470801,4.495603394900172-.28062340751967l1.982009527179798-1.982009520159409c1.213510531849352-1.213510527541075,1.333797671220054-3.140628990800906.280608381729508-4.495622692580582ZM28.640410617040288,30.997225809040174c-7.859935818690246,4.432800036769549-15.93308891479046-3.640217303280224-11.500466361040708-11.500332951780365.553290459570235-.981118276309644,1.376515910010312-1.804280282340187,2.357687195770268-2.357476732780924,7.859761365940358-4.431430222230119,15.931730145290203,3.640674241740271,11.500122560450109,11.500255812710748-.55318950047058.981097247420621-1.37629916295009,1.804270357959467-2.357343395179669,2.357553871850541Z"/>
</svg>