<?xml version="1.0" encoding="UTF-8"?>
<svg id="illu" xmlns="http://www.w3.org/2000/svg" version="1.1" viewBox="0 0 29.5 29.5">
  <!-- Generator: Adobe Illustrator 30.1.0, SVG Export Plug-In . SVG Version: 2.1.1 Build 136)  -->
  <defs>
    <style>
      .st0 {
        fill: #faf9f9;
      }
    </style>
  </defs>
  <path class="st0" d="M29.4,10C29.2,3,26.5.3,19.5,0c-3.1-.1-6.7-.1-9.8,0C2.9.4.3,3.2,0,10,0,13,0,16.5,0,19.5c.3,7,2.9,9.7,9.9,9.9,3,.1,6.5.1,9.5,0,7-.3,9.7-2.9,9.9-9.9.1-3,.1-6.5,0-9.5ZM26.7,20.6c-.4,7.1-5.9,6.1-11.2,6.1-2.1,0-4.4.1-6.6,0-7.1-.4-6.1-5.8-6.1-11.1,0-2.2-.1-4.5,0-6.7.4-7.2,6.3-6.2,11.8-6.2,1.9,0,4.2,0,6.1,0,7.1.4,6.1,5.9,6.1,11.3,0,2.1.1,4.4,0,6.5Z"/>
  <path class="st0" d="M23.5,8.4c-1.5,1-3.4-.8-2.5-2.4.2-.4.7-.8,1.2-.8,2-.3,2.9,2.2,1.3,3.2Z"/>
  <path class="st0" d="M13.6,7.3c-5.7.6-8.4,7.9-4.7,12.3,3.8,4.6,11.4,3,13-2.7,1.5-5.4-2.9-10.2-8.4-9.6ZM15.2,19.6c-6.4.5-7.3-9-1.1-9.8,6.6-.8,7.5,9.2,1.1,9.8Z"/>
</svg>