<?xml version="1.0" encoding="UTF-8"?>
<svg id="illu" xmlns="http://www.w3.org/2000/svg" viewBox="0 0 79.580337828059783 73.355259701300383">
  <defs>
    <style>
      .cls-1 {
        fill: #faf9f9;
      }
    </style>
  </defs>
  <path class="cls-1" d="M76.35691765988031,28.145794700900296l-.620733312660377-.798612118000165c-.386157906190419-.496816228580428-.45363610340064-1.159443116999682-.213071571650289-1.740883569280413.002600668270134-.006285771740295.005195203299991-.01257473467922.007783602920426-.018866879769121.239847632669807-.583046024210489.757159618459809-1.005192355110921,1.382716355709817-1.083603589830091l1.003941509399738-.125840373320898c.950010713449956-.11908034652879,1.662783567409861-.926774262468825,1.662783573880006-1.884219030898748l.000000010580152-1.563748194330401c.000000006470145-.957451331380071-.712782318430072-1.765148646160014-1.662800618209985-1.884221237600286l-1.003909463659511-.125827156620289c-.625571899220631-.078407402450466-1.142901705790791-.500563505980608-1.382741860720671-1.083628358230271-.002587859669802-.006291231809882-.005181849469409-.0125792842191-.00778196714964-.018864148069042-.240537331010273-.58141382786016-.173044144949927-1.244002769781218.213085133619643-1.740796919380955l.620767607640119-.798679957339118c.587548878610505-.755940721679508.520437434560336-1.831050123020759-.156560010399517-2.508054199061007l-1.105780593180498-1.105791424099152c-.677006135920237-.677012767069755-1.752131936589649-.744126639850947-2.50807813738993-.156564782389978l-.798652356219463.620755367739548c-.496793464980328.386134477230371-1.159383212840112.453626583899677-1.740802048330806.213094425760573-.00628594644968-.002600487239761-.012575082560033-.005194842749916-.018867399179726-.00778306436041-.58306691343023-.239833193179948-1.005231034690041-.757154134160373-1.083648225439902-1.382724058530584l-.125861327620441-1.004053581209519c-.119083350629808-.949982547610489-.926755618159405-1.662731427899416-1.884172813099212-1.66273142809041l-1.563806639770519-.000000000309228c-.957442514530157-.00000000018008-1.76512782519967.712785529929533-1.884181077860376,1.66279736756951l-.125806763359833,1.003902974389348c-.07839741655971.625589575280173-.500564435179513,1.142932741260665-1.083644719199583,1.382778220720866-.00630165586972.002592136470412-.012600118519913.005190424759348-.01889537884017.007794862609444-.581424216409687.240543386569698-1.24402486534018.173056074370834-1.740825645189943-.213084088500182l-.798641587969541-.62074699834011c-.755946200490143-.587561857439141-1.831072000930362-.520447984739803-2.508078136610493.156564782209898l-1.105780593809868,1.105791424910421c-.676997445139932.677004076320372-.744108889090057,1.752113478030878-.15656001016032,2.508054199879552l.620751310900232.798658989720934c.386127119530101.496791371630025.453612864979732,1.159372285550489.21308825819051,1.740787569910026-.002597918261017.006279895449552-.005189714830522.012562974439788-.007775387660331.018849227839382-.239836462959829.583087219180015-.757173327280725,1.005266473490337-1.382764535680508,1.083674853831326l-1.003983446449638.125834114789541c-.94999766644014.119067815150629-1.662765464249787.926746815270235-1.662765464289805,1.884177079489746l-.000000000060027,1.56381998318102c-.000000000030013.957423729698348.712758339129323,1.765099363668924,1.66274844633972,1.884174946448184l1.004033141130094.125849554120578c.625566572970456.078411031519863,1.14288957502049.500565672920857,1.382729187550467,1.08362552178005.002588431779259.006292582889728.005182996479562.012581983160999.007783691849909.018868191780712.24054050525956.581416730688943.17305050332925,1.244009831449148-.213081165949916,1.740807057080019l-.620758957070393.79866882774877c-.587551053849893.755943520540313-.520436680209968,1.831057512130428.156566586930239,2.508060779051448l1.105777569119709,1.105777568738631c.677003266980137.677003266750035,1.752117258220096.744117640329932,2.508060778750405.156566586851113l.798665992809219-.620756753271053c.496789889690262-.386125967250337,1.159369632260677-.453615462020025,1.740782717540242-.213090450130039.006293409590398.002603523131256.012590019649906.005200900261116.018889821079938.007792129250447.58309776949045.23983928016969,1.005280279920044.757190654450824,1.08367870543043,1.38279402398075l.125807226999314,1.003915890059943c.119052278640083.950012786448497.926738011910857,1.662799503528731,1.884181346770674,1.662799503868882l1.563802817489886.000000000551154c.957418014750147.000000000340151,1.765090704890099-.712750066350054,1.884173081170047-1.662733562319772l.125862305970259-1.004070603599757c.078416345919322-.625568927671338.500580543589422-1.142884918561322,1.083643870759261-1.382723954351604.006289921209827-.002587315249912.01257666435049-.005180761500014.018860220259739-.00778033647839.581424456921013-.240541581120851,1.244024211740907-.173055111730719,1.740824621740103.213084764458472l.798648512760337.62075238189027c.755943399850366.587559681820494,1.831064608139968.520448740200663,2.508071552990259-.156558202239466l1.105751837119897-1.105751833210888c.677010620559486-.677010618159329.744118131149662-1.752139043059287.156549819440443-2.508082319049208ZM68.703186043569985,25.577326321139481c-4.385013468390753,2.473033916860004-8.88897964259013-2.030856519808367-6.416044742500162-6.415970314228616.308677599039584-.547360303569803.767950393499632-1.006597702749787,1.315340270730303-1.315222854631429,4.384916142189468-2.472269705120198,8.888221592819718,2.031111443191548,6.41585293810931,6.41592727879106-.308621274529287.547348571659313-.767829471549703,1.006592165989787-1.315148466339451,1.315265890068986Z"/>
  <path class="cls-1" d="M35.650405612189388,8.055725180140143c-.03125,0-.061645507809772.000122070310681-.092895507809772.000366210939319l-3.030517578119543.022033691400793c-.296264648440228-.719665527340112-.390747070320685-.949279785150793-.704833984380457-1.712097167970569,1.3349609375-.720153808590112,2.07080078125-2.268737792970569,1.681762695309772-3.80615234375C33.115249362189388,1.023498617640143,31.734756198129617.000000082480256,30.219131198129617.000000082480256c-.275268554690228-.000061035150793-.555053710940228.033752441409888-.834228515619543.104370117189319-1.8154296875.459350585941138-2.914794921880457,2.303466796869543-2.455444335940228,4.11895751953125.388793945309772,1.53631591796875,1.77099609375,2.54833984375,3.28662109375,2.54833984375h.003051757809772l.139404296880457,1.322265625-1.89111328125.013732910159888c-6.9130859375.05029296875-12.4765625,5.695190429678405-12.42626953125,12.608215332029431l.015380859369543,2.114501953119543c.033813476559772,4.631591796880457,3.799072265630457,8.363220214851026,8.422973632809772,8.363220214851026.02099609375,0,.041625976570685-.000122070321595.062622070320685-.000244140630457l15.27587890625-.111083984369543c4.652587890619543-.033813476571595,8.39697265625-3.832946777351026,8.363037109369543-8.485534667970569l-.015380859369543-2.114501953130457c-.050048828130457-6.881774902340112-5.644897460940228-12.426513671869543-12.515258789070685-12.426513671869543ZM27.172744479379617,18.723816000450825h-.0078125c-.589477539059772,0-1.073974609369543-.480041503911707-1.078369140619543-1.070434570310681l-.02294921875-3.173950195310681c-.00439453125-.593078613290345.477294921869543-1.081848144540345,1.0703125-1.08612060546875h.007934570309772c.589477539059772-.000061035159888,1.073852539059772.47998046875,1.078247070309772,1.070434570308862l.023071289059772,3.173950195310681c.004272460940228.593017578130457-.477416992179315,1.081787109380457-1.070434570309772,1.086120605470569ZM37.119033541879617,18.651428305140143h-.007934570309772c-.589599609380457,0-1.073852539059772-.47998046875-1.078247070309772-1.070373535159888l-.023071289070685-3.173950195310681c-.004272460929315-.593078613279431.477416992190228-1.081848144529431,1.070434570320685-1.08612060546875.002685546869543,0,.005249023429315-.000061035161707.007934570309772-.000061035161707.589477539059772,0,1.073852539059772.480041503911707,1.078247070309772,1.070495605470569l.02294921875,3.173950195319776c.00439453125.593017578121362-.477294921869543,1.081787109371362-1.0703125,1.086059570310681Z"/>
  <path class="cls-1" d="M35.907363874149269,57.870927275369468h-7.592651367189319c-6.787475585930224,0-12.289794921870453-5.502319335930224-12.289794921870453-12.289794921869543s5.502319335940228-12.289794921880457,12.289794921870453-12.289794921880457h7.592651367189319c6.787475585940228,0,12.289794921880457,5.502319335941138,12.289794921880457,12.289794921880457s-5.502319335940228,12.289794921869543-12.289794921880457,12.289794921869543Z"/>
  <path class="cls-1" d="M25.659007794590252,73.35525970118033h-5.352156464340624c-2.098730852650078,0-3.588226757329721-2.045558117029941-2.94391055126016-4.042938355860315l5.352156464340624-16.591685039449658c1.082594900839467-3.356044192600166,6.037200342189863-2.576687258850143,6.037200342189863.949648564919698v16.591685039460572c0,1.708376778329693-1.384913012590005,3.093289790929703-3.093289790929703,3.093289790929703Z"/>
  <path class="cls-1" d="M39.137728784970022,73.355259701060277l5.352156464339714.000000000240107c2.098730852650078.00000000008913,3.588226757419761-2.04555811686987,2.94391055144024-4.042938355731167l-5.352156463600295-16.591685039689764c-1.082594900680306-3.356044192649279-6.037200342069809-2.576687259119353-6.03720034222988.949648564650488l-.000000000740329,16.591685039460572c-.000000000080036,1.708376778329693,1.384913012450852,3.093289790989729,3.09328979079055,3.093289791069765Z"/>
  <path class="cls-1" d="M65.18524252285988,47.554548410440475l3.200171669180236-4.290044301220405c1.254877180949734-1.682246846530688.505853423149347-4.099242806480106-1.480406180889986-4.777065775420851l-16.499309002980226-5.63048787327898c-3.337359046409802-1.138893734039812-5.675129303420363,3.298486409139514-2.848579480780245,5.406959895390173l13.299137333789986,9.920532174499385c1.369356839830289,1.021475923351318,3.307509738319823.739462719850053,4.328985661680235-.629894119969322Z"/>
  <path class="cls-1" d="M6.926344016739677,54.587485323019791l-4.974013822079542-1.97604790341029c-1.950450503350112-.774863875669325-2.579477777080683-3.225829144528689-1.243239422390616-4.844204333188827l11.099762322640345-13.443394945041291c2.245178400729856-2.719231194838358,6.561985928159629-.165667982229934,5.260041831849776,3.111523790010324l-6.125748500559894,15.419442848449762c-.63074283674996,1.587675877070069-2.429126532379996,2.363423379931191-4.01680240946007,1.732680543180322Z"/>
</svg>