<?xml version="1.0" encoding="UTF-8"?>
<svg id="illu" xmlns="http://www.w3.org/2000/svg" viewBox="0 0 53.579636679086434 73.355215093029983">
  <defs>
    <style>
      .cls-1 {
        fill: #faf9f9;
      }
    </style>
  </defs>
  <path class="cls-1" d="M14.905259888219916,73.35521509290993h-5.352156464349719c-2.098730852640074,0-3.588226757329721-2.045558117020846-2.943910551250156-4.042938355849401l5.352156464339714-16.591685039451477c1.082594900840377-3.356044192609261,6.037200342180768-2.576687258850143,6.037200342180768.949648564921517v16.591685039449658c0,1.708376778340607-1.384913012590914,3.093289790929703-3.093289790920608,3.093289790929703Z"/>
  <path class="cls-1" d="M28.383980878589682,73.355215092789877l5.352156464340624.000000000240107c2.098730852660083.000000000100044,3.588226757429766-2.045558116860775,2.94391055144024-4.042938355720253l-5.352156463600295-16.591685039689764c-1.082594900670301-3.356044192649279-6.037200342069809-2.576687259119353-6.037200342219876.949648564650488l-.000000000740329,16.591685039449658c-.000000000080036,1.708376778338788,1.384913012449942,3.093289791000643,3.093289790779636,3.093289791069765Z"/>
  <path class="cls-1" d="M46.544910338824593,55.648792934520316l5.017233225830751-1.863585140619762c1.967398045289883-.730764068130156,2.651435714200488-3.166949308970288,1.351964583899644-4.814992382851415l-10.794347161754558-13.689837859468753c-2.183401265090652-2.769079857580437-6.556594238110847-.313332409141367-5.328747652180027,2.992335012650074l5.777113935910165,15.553423000088515c.594845386149245,1.601471255871729,2.375311812429572,2.417502756341491,3.976783068294026,1.822657370201341Z"/>
  <g>
    <path class="cls-1" d="M19.867127448619613,39.105224938690299c1.629699707040345-.5126953125,2.535217285160797-2.249389648441138,2.022521972660797-3.879028320319776l-1.606262207030341-5.10546875c-.42724609375-1.358276367180224-1.6689453125-2.16650390625-2.957763671880457-2.16650390625-.135620117179315,0-.271728515619543.012329101569776-.407470703119543.030639648439319.1083984375.266967773439319.233642578119543.526245117189319.388427734369543.767578125.099365234380457.155029296880457.207763671880457.30419921875.324829101570685.446411132810681.117065429679315.142211914069776.242553710929315.277709960939319.375854492179315.405517578128638l-.209716796869543,1.559692382810681h.000122070309772l-1.206176757809772,8.9716796875,3.275634765619543-1.030517578119543Z"/>
    <path class="cls-1" d="M20.16717627675007,40.059082360559842l-3.722900390630457,1.171264648439319-.01171875.08740234375c-.09326171875.693481445310681.382080078130457,1.335205078121362,1.07275390625,1.448120117191138l1.966796875.321655273430224c.070556640630457.011596679689319.140869140630457.01708984375.210205078130457.01708984375.60888671875,0,1.14892578125-.431274414060681,1.267822265619543-1.048095703121362l.519897460940228-2.695190429689319c-.385314941399884.3037109375-.820678710940228.546142578130457-1.302856445309772.69775390625Z"/>
    <path class="cls-1" d="M21.96484473378041,21.668335290249161c-.253601074220569-.04150390625-.505981445310681-.0615234375-.7548828125-.0615234375-.279357910160797,0-.554504394530341.025268554691138-.822814941410797.073974609371362-1.879028320309772.340698242189319-3.427612304679315,1.828002929689319-3.75341796875,3.8203125-.064086914059772.392211914069776-.076904296869543.780883789069776-.043579101559772,1.159057617189319.010620117190228.120361328130457.03369140625.237426757810681.053588867190228.35546875.22412109375-.038208007810681.451416015619543-.061401367189319.681884765619543-.061401367189319,1.80029296875,0,3.372314453130457,1.15185546875,3.911682128910797,2.866455078128638l1.285095214839203,4.084594726560681.666137695320685-3.45361328125c1.337036132809772-.62939453125,2.352416992179315-1.883544921869543,2.608947753899884-3.4521484375.413757324219659-2.530517578119543-1.302124023430224-4.917358398439319-3.832641601559772-5.331176757810681Z"/>
  </g>
  <g>
    <path class="cls-1" d="M37.411927253309841,20.482178063690299c-.050048828119543-6.8818359375-5.644897460940228-12.426513671880457-12.515258789059772-12.426513671880457-.03125,0-.061645507809772.000122070310681-.092895507809772.000366210939319l-3.030517578130457.022094726560681c-.296264648440228-.7197265625-.390747070309772-.949340820310681-.704833984369543-1.712158203119543,1.3349609375-.72021484375,2.07080078125-2.268798828130457,1.681762695309772-3.80615234375C22.36151221425007,1.023437829309842,20.981019050190298.000000329309842,19.465394050190298.000000329309842c-.275268554690228-.000122070310681-.555053710940228.03369140625-.834228515630457.104248046880457-1.8154296875.45947265625-2.914794921869543,2.303466796869543-2.455444335940228,4.119018554680224.388793945320685,1.536254882819776,1.77099609375,2.54833984375,3.28662109375,2.54833984375h.003051757820685l.139404296869543,1.322265625-1.89111328125.013793945319776c-6.9130859375.05029296875-12.4765625,5.695068359369543-12.42626953125,12.608154296869543l.015380859380457,2.114501953130457c.026245117179315,3.60107421875,2.312622070309772,6.649169921869543,5.500122070309772,7.831298828119543l4.161865234369543-2.951416015619543c.225830078130457-.16015625.467529296880457-.286254882819776.715087890630457-.396484375-.123901367190228-.643310546880457-.1416015625-1.31005859375-.032958984380457-1.973999023441138.448486328130457-2.742431640628638,2.7880859375-4.73291015625,5.563049316410797-4.73291015625.304931640629547,0,.613220214839203.025024414060681.916259765629547.074584960941138,3.070617675780341.502197265619543,5.160217285149884,3.408813476558862,4.658142089840112,6.4794921875-.271484375,1.66015625-1.26806640625,3.1025390625-2.704467773440228,3.949462890619543l-.001586914059772.008056640630457,4.985961914059772-.0361328125c4.652587890630457-.033935546880457,8.39697265625-3.8330078125,8.363037109380457-8.485595703130457l-.015380859380457-2.114501953119543ZM16.419007331440298,18.723755212120523h-.0078125c-.589477539070685,0-1.073974609380457-.480102539060681-1.078369140630457-1.070434570310681l-.02294921875-3.173950195310681c-.00439453125-.593139648439319.477294921880457-1.081909179689319,1.0703125-1.086059570308862h.007934570309772c.589477539070685-.000122070319776,1.073852539070685.47998046875,1.078247070320685,1.0703125l.023071289059772,3.174072265619543c.004272460940228.593017578130457-.477416992190228,1.081787109380457-1.070434570309772,1.086059570310681ZM26.365296393940298,18.651367516809842h-.007934570320685c-.589599609369543,0-1.073852539059772-.47998046875-1.078247070309772-1.0703125l-.023071289059772-3.174072265619543c-.004272460940228-.593017578130457.477416992190228-1.081787109380457,1.070434570309772-1.086059570319776.002685546880457,0,.005249023440228-.000122070310681.007934570309772-.000122070310681.589477539070685,0,1.073852539070685.480102539060681,1.078247070320685,1.070556640630457l.02294921875,3.173950195308862c.00439453125.593017578121362-.477294921880457,1.081787109371362-1.0703125,1.086059570310681Z"/>
    <path class="cls-1" d="M12.024964362690298,31.020996423059842c.549560546869543.11279296875,1.118286132809772.172607421880457,1.700805664059772.172607421880457.02099609375,0,.041625976559772-.000244140630457.062622070309772-.000244140630457l2.999145507809772-.021850585939319.1650390625-1.226684570310681c-.431274414059772-.497802734369543-.763671875-1.063232421869543-.996337890619543-1.665771484369543-.140991210940228.070556640619543-.279174804690228.151977539058862-.412841796880457.246826171869543l-3.518432617179315,2.4951171875Z"/>
  </g>
  <path class="cls-1" d="M21.88964942128041,35.226196618370523l-1.606262207030341-5.10546875c-.42724609375-1.358276367180224-1.6689453125-2.16650390625-2.957763671880457-2.16650390625-.61083984375,0-1.23193359375.181274414069776-1.7822265625.571655273439319L1.322693854869613,38.610596032440299c-2.580078125,1.829711914058862-1.051025390619543,5.633056640619543,1.71875,5.633056640619543.318115234380457,0,.65234375-.050170898439319.998779296880457-.1591796875l15.826904296869543-4.979248046869543c1.629699707040345-.5126953125,2.535217285160797-2.249389648441138,2.022521972660797-3.879028320319776Z"/>
  <g>
    <path class="cls-1" d="M16.495423347059841,33.345093102749161c-5.641723632809772.485595703121362-10.183715820309772,4.780395507810681-11.0595703125,10.300415039060681l10.102172851559772-3.17822265625.957397460940228-7.122192382810681Z"/>
    <path class="cls-1" d="M25.153626472059841,33.291260094940299h-1.494384765619543l-1.727172851570685,8.954467773430224c-.207580566399884,1.0771484375-1.15380859375,1.85888671875-2.249755859369543,1.85888671875-.12255859375,0-.246826171880457-.009765625-.37158203125-.030151367180224l-1.966796875-.321655273441138c-1.1103515625-.181518554689319-1.890869140630457-1.115112304689319-1.915649414059772-2.202758789058862l-10.116577148440228,3.1826171875c-.019287109380457.281372070308862-.04052734375.562255859369543-.04052734375.848388671869543,0,6.787475585939319,5.502319335940228,12.289794921880457,12.289794921869543,12.289794921880457h7.592651367190228c6.787475585940228,0,12.289794921880457-5.502319335941138,12.289794921880457-12.289794921880457s-5.502319335940228-12.289794921869543-12.289794921880457-12.289794921869543Z"/>
  </g>
</svg>