<?xml version="1.0" encoding="UTF-8"?>
<svg id="illu" xmlns="http://www.w3.org/2000/svg" viewBox="0 0 27.492360099170583 22.246964478230439">
  <defs>
    <style>
      .cls-1 {
        fill: #2a2a25;
      }
    </style>
  </defs>
  <path class="cls-1" d="M5.154726793020018,21.375186906920135l8.152659699310789-8.152301765429002c1.161996059119701-1.161945042929801,1.161996059119701-3.045884290560934,0-4.207829333479822L5.163377810850761.871404680579872C4.604145201860774.312196624110584,3.845286938180834-.001357670998914,3.054431132050013.000004419231118l-.069010133599477.000118856089102C.337203982990104.004684297071435-.985903807229988,3.206633360679916.886624870230662,5.079254656071498l3.935704421779519,3.935899087309735c1.161865216230581,1.161922683730154,1.161865091450636,3.045710654228969-.000000278700099,4.207633184039878l-3.944843016799496,3.945037089109974c-1.879658822300371,1.879751294849484-.538570671400521,5.093189445889948,2.119696347570425,5.079094246959357l.069498268199823-.00036850772085c.78360475513-.004154986998401,1.533933991679987-.317274987488418,2.088046180739184-.871362848849458Z"/>
  <path class="cls-1" d="M16.310186743440681,22.246607660241352l.069547798920212-.000351930300894c.783855245509585-.003966515350839,1.534477961209632-.317102293449352,2.088766584719451-.871366581499387l8.152361927750462-8.152004006949937c1.161996059119701-1.161945042929801,1.161996059119701-3.045884290560934,0-4.207829333479822L18.480598263960928.87514840681979C17.919153203300084.313727995810041,17.156602159210706.000001186801455,16.362625349480368.003777382980843l-.068834525620332.000327380679664c-2.643847580519832.012574280510307-3.959226723459324,3.209562931089749-2.089764218279015,5.079107817760814l3.931756408709589,3.931929669179226c1.161875054040138,1.161926254299033,1.161872324360047,3.045727464430456-.000006096980542,4.207650351560005l-3.944554624939883,3.944705585439806c-1.879428608020135,1.879500534891122-.53896580672972,5.092559304390306,2.118964451070497,5.079109472640994Z"/>
</svg>