<?xml version="1.0" encoding="UTF-8"?>
<svg id="Calque_1" xmlns="http://www.w3.org/2000/svg" version="1.1" viewBox="0 0 24 24">
  <!-- Generator: Adobe Illustrator 30.1.0, SVG Export Plug-In . SVG Version: 2.1.1 Build 136)  -->
  <defs>
    <style>
      .st0 {
        fill: none;
        stroke: #2a2a25;
        stroke-linecap: round;
        stroke-linejoin: round;
        stroke-width: 2px;
      }
    </style>
  </defs>
  <rect class="st0" x="8" y="2" width="8" height="4" rx="1" ry="1"/>
  <path class="st0" d="M16,4h2c1.1,0,2,.9,2,2v14c0,1.1-.9,2-2,2h-5.5"/>
  <path class="st0" d="M4,13.5v-7.5c0-1.1.9-2,2-2h2"/>
  <path class="st0" d="M13.4,15.6c.8-.8.8-2.2,0-3s-2.2-.8-3,0l-5,5c-.2.2-.4.5-.5.9l-.8,2.9c0,.3,0,.5.3.6,0,0,.2,0,.3,0l2.9-.8c.3,0,.6-.3.9-.5l5-5Z"/>
</svg>