<?xml version="1.0" encoding="UTF-8"?>
<svg id="Calque_1" xmlns="http://www.w3.org/2000/svg" version="1.1" viewBox="0 0 24 24">
  <!-- Generator: Adobe Illustrator 30.1.0, SVG Export Plug-In . SVG Version: 2.1.1 Build 136)  -->
  <defs>
    <style>
      .st0 {
        fill: none;
        stroke: #2a2a25;
        stroke-linecap: round;
        stroke-linejoin: round;
        stroke-width: 2px;
      }
    </style>
  </defs>
  <rect class="st0" x="3" y="8" width="18" height="4" rx="1" ry="1"/>
  <path class="st0" d="M12,8v13"/>
  <path class="st0" d="M19,12v7c0,1.1-.9,2-2,2H7c-1.1,0-2-.9-2-2v-7"/>
  <path class="st0" d="M7.5,8c-1.4,0-2.5-1.1-2.5-2.5s1.1-2.5,2.5-2.5c2,0,3.8,1.9,4.5,5,.7-3.1,2.5-5,4.5-5,1.4,0,2.5,1.1,2.5,2.5s-1.1,2.5-2.5,2.5"/>
</svg>