<?xml version="1.0" encoding="UTF-8"?>
<svg id="Calque_1" xmlns="http://www.w3.org/2000/svg" version="1.1" viewBox="0 0 24 24">
  <!-- Generator: Adobe Illustrator 30.1.0, SVG Export Plug-In . SVG Version: 2.1.1 Build 136)  -->
  <defs>
    <style>
      .st0 {
        fill: none;
        stroke: #2a2a25;
        stroke-linecap: round;
        stroke-linejoin: round;
        stroke-width: 2px;
      }
    </style>
  </defs>
  <path class="st0" d="M11,17l2,2c.8.8,2.2.8,3,0,.8-.8.8-2.2,0-3"/>
  <path class="st0" d="M14,14l2.5,2.5c.8.8,2.2.8,3,0,.8-.8.8-2.2,0-3l-3.9-3.9c-1.2-1.2-3.1-1.2-4.2,0l-.9.9c-.8.8-2.2.8-3,0-.8-.8-.8-2.2,0-3l2.8-2.8c1.9-1.9,4.8-2.2,7.1-.9l.5.3c.4.3.9.3,1.4.2l1.7-.4"/>
  <path class="st0" d="M21,3l1,11h-2"/>
  <path class="st0" d="M3,3l-1,11,6.5,6.5c.8.8,2.2.8,3,0s.8-2.2,0-3"/>
  <path class="st0" d="M3,4h8"/>
</svg>