<?xml version="1.0" encoding="UTF-8"?>
<svg id="illu" xmlns="http://www.w3.org/2000/svg" viewBox="0 0 51.114640924824926 51.114764084253693">
  <defs>
    <style>
      .cls-1 {
        fill: none;
        stroke: #060300;
        stroke-miterlimit: 10;
        stroke-width: .099833525717258px;
      }

      .cls-2 {
        fill: #2a2a25;
      }
    </style>
  </defs>
  <path class="cls-2" d="M27.101138259441541.998335236019557l2.535222488233558.318353410286363c2.566828719123805.421459065366435,5.048719120239184,1.264651397064881,7.377477424086464,2.50636131363899,2.277674664619553,1.214478714366123,4.351995802433521,2.778514908497527,6.165362931349591,4.648693430071944,1.81422019857564,1.871055964651532,3.313438331958423,3.993097209893676,4.456024600754063,6.307182715594536,1.171953191830653,2.373571881076714,1.937668518364262,4.889374847842191,2.275740024498191,7.476662005412436.024288111882015.187123876528858.038607495454926.390721137522632.053786042042702.606279653815363.027913657935642.396790118815261.056686478886149.8057212468957.151553918398349,1.219130990688427v2.952126770953328c-.0950441467985.412297706558093-.123457459821111.819623235671315-.151017703183243,1.214832128940543-.015129799749957.21692038106994-.029424809904413.421806386584649-.053974936039594.608549428445258-.343811446271502,2.594465129419405-1.111909274497521,5.112519590751617-2.28296674318608,7.484239091996642-1.14208661370958,2.313052682076886-2.639370106971,4.432818059332931-4.450260287197125,6.300391671768011-1.810018830501576,1.866687029323657-3.882225574230688,3.428764209915244-6.159065449253831,4.642855996256912-2.326799290307463,1.240725839788865-4.810886345797371,2.086574874141661-7.383744439408474,2.514215647863239l-2.534137871094572.318219356482587h-3.009623666015614c-.412252006397466-.095047193475693-.819297241194363-.123460506498304-1.214222793468252-.151029889893834-.216728440397674-.015129799749047-.421440785303275-.029415669871014-.608068053424176-.053944469264025-2.655662214132462-.352220275775835-5.22986846247386-1.149267632239571-7.651104087446583-2.368995771688787-2.36105460716044-1.189416746436109-4.514100364514888-2.747716047106223-6.39933785059111-4.631622896846238-1.886581832458432-1.885247387777781-3.445546070461205-4.037240518106046-4.633600952118286-6.396215767970716-1.219947500220769-2.422306532062066-2.014558657302587-4.998247863159122-2.361870735857337-7.657067958371044-.024749302666351-.188251147150368-.039170749931145-.393481427207007-.054436507658465-.610746082818878-.027310796654092-.388527529827115-.055450670383834-.788815234247522-.146314395014997-1.193688188088345.015022023538222-.485488036682.002867685061574-.968486937965281-.008926383818107-1.436953188258485-.014040231760191-.55788623069202-.027300133283461-1.084845639545165.002849785832041-1.597878686201511.343962637635741-5.886384779214495,2.904892227728851-11.500488003119244,7.211028680930212-15.808124183249674C12.526191772832135,3.909996038330064,18.126528585105007,1.34951354813893,23.999422676985887.998335236019557h3.101715582455654M27.163579911853049,0h-3.193673445092827C11.300033620821523.741762349160126.760609326288431,11.283186787377417.019844384614771,23.960045664494828c-.061896673536467,1.053242455329382.044925166250323,2.138435416092761,0,3.194672755264037.152745167756621.575042070886411.134775103041648,1.232944625822711.213643678086555,1.832942030929189,1.474541189303636,11.288177244887265,10.636263315129327,20.418953507140031,21.904472636625542,21.913458430652099.60000045178549.078866290037695,1.256903696548761.059900723497776,1.831945767433353.21364520291354h3.193673445092827l2.615639537045354-.328450099043039c10.937760602108028-1.80898296020132,19.66320995559181-10.792007557394754,21.121776273012983-21.7986535345226.078872383392991-.599997405106478.05990377017406-1.257899960042778.21364520291354-1.832942030929189v-3.194672755264037c-.152742122566451-.575042070886411-.135772129693578-1.232944625822711-.21364520291354-1.832942030929189C49.465389165045053,11.140425579829753,40.697012127614471,2.112474678342551,29.779219448898402.328450099043039l-2.615639537045354-.328450099043039h0Z"/>
  <path class="cls-2" d="M40.240775240227777,20.81129852369304c-.261563344369279-7.000326187508108-2.942097109096721-9.671872254037226-9.929444451068775-9.933435598404685-3.097831068826963-.115810299657824-6.657897932755077-.10283145412177-9.754735784764307.032940675573627-6.880524740515284.301499191151379-9.40731097914886,3.064890393252426-9.663883866008291,9.900494922831058-.111813058966618,3.004986623080185-.111813058966618,6.487180413787428,0,9.492167036867613.262562654541398,6.995335730000079,2.937106651587783,9.671872254037226,9.930443761240895,9.933435598404685,3.003987312907157.112812369139647,6.484188576624547.112812369139647,9.488175889531703,0,6.983356194635235-.26156334436746,9.667881106699497-2.943090325914454,9.929444451068775-9.933435598404685.112812369138737-3.004986623080185.112812369138737-6.487180413787428,0-9.492167036867613ZM37.546269413144728,31.401634320183803c-.398340877589362,7.103157641628059-5.868217442139212,6.100831258270773-11.235268645922588,6.131779406854548-2.142423516753297.011979535363935-4.421624566727587.129782362011611-6.586014627217992.00798229467182-7.070210872700045-.397335474062857-6.097833327752596-5.769377135355171-6.128781476334552-11.139420176301428-.012978845536963-2.182365456890693-.131780982357668-4.489516724930581-.008987698201054-6.688846081338852.40333133510012-7.172043016647876,6.279531071911151-6.199665471700428,11.762386481997055-6.208647076546185,1.917804182003238-.003997240690296,4.163059152877395-.037937226437862,6.059896101316554.068885375019818,7.144086705228801.401326621398766,6.099825854744267,5.938096033976763,6.128781476335462,11.339087223506795.010980225190906,2.107490314188908.127783741666462,4.357735742571094.007988388027115,6.489179034133485Z"/>
  <path class="cls-1" d="M37.538281025117612,24.912455286050317c-.028955621591194-5.400991189530032,1.01530522889334-10.937760602108028-6.128781476335462-11.339087223506795-1.896836948439159-.106822601457679-4.142091919313316-.072882615710114-6.059896101316554-.068885375019818-5.482855410085904.008981604845758-11.359055146896935-.963395940101691-11.762386481997055,6.208647076546185-.122793284156614,2.199329356408271-.00399114733591,4.506480624448159.008987698201054,6.688846081338852.030948148581956,5.370043040946257-.941429396365493,10.742084702238571,6.128781476334552,11.139420176301428,2.164390060490405.121800067339791,4.443591110464695.003997240692115,6.586014627217992-.00798229467182,5.367051203783376-.030948148583775,10.836927768333226.97137823477351,11.235268645922588-6.131779406854548.119795353639347-2.131443291562391.00299183716379-4.381688719944577-.007988388027115-6.489179034133485ZM32.801179111528654,27.652886727597433c-1.596337067459899,5.768383918537438-9.171705325852599,7.319794681705389-13.019287131868623,2.743423278710907-3.699830140957602-4.400657333162599-1.072217161903609-11.650567329676051,4.665218608050964-12.29848592291637,5.501824023304835-.621966995522598,9.855562525185633,4.130112383947562,8.354068523817659,9.555062644205464ZM34.344607580024785,19.212962835887083c-1.514478940259323.986355700655622-3.391347965306522-.812646344526001-2.475876260014957-2.376036643057887.211652675922778-.361396867971052.738770511997245-.768719350407991,1.157073219624181-.839603345772048,1.977701858822002-.332447339735154,2.936101248060368,2.162397533498734,1.318803040390776,3.215639988829935Z"/>
  <path class="cls-2" d="M34.344607580024785,19.212962835887083c-1.514478940259323.986355700655622-3.391347965306522-.812646344526001-2.475876260014957-2.376036643057887.211652675922778-.361396867971052.738770511997245-.768719350407991,1.157073219624181-.839603345772048,1.977701858822002-.332447339735154,2.936101248060368,2.162397533498734,1.318803040390776,3.215639988829935Z"/>
  <path class="cls-2" d="M24.447110587710995,18.09782408339197c-5.737435769954573.64791859324032-8.365048749008565,7.897828589753772-4.665218608050964,12.29848592291637,3.847581806016024,4.576371402994482,11.422950064408724,3.024960639826531,13.019287131868623-2.743423278710907,1.501494001367973-5.424950260257901-2.852244500512825-10.177029639728062-8.354068523817659-9.555062644205464ZM26.014498126934086,30.447226078282256c-6.379364595512925.536105534274611-7.270877230077531-9.005978264394798-1.068219921212403-9.753730381236892,6.6119723182901-.796675661826157,7.475534734790017,9.215632319972428,1.068219921212403,9.753730381236892Z"/>
  <path class="cls-1" d="M26.014498126934086,30.447226078282256c-6.379364595512925.536105534274611-7.270877230077531-9.005978264394798-1.068219921212403-9.753730381236892,6.6119723182901-.796675661826157,7.475534734790017,9.215632319972428,1.068219921212403,9.753730381236892Z"/>
</svg>