<?xml version="1.0" encoding="UTF-8"?>
<svg id="Calque_1" xmlns="http://www.w3.org/2000/svg" version="1.1" viewBox="0 0 24 24">
  <!-- Generator: Adobe Illustrator 30.1.0, SVG Export Plug-In . SVG Version: 2.1.1 Build 136)  -->
  <defs>
    <style>
      .st0 {
        fill: none;
        stroke: #2a2a25;
        stroke-linecap: round;
        stroke-linejoin: round;
        stroke-width: 2px;
      }
    </style>
  </defs>
  <path class="st0" d="M2,22v-10C2,6.5,6.5,2,12,2s10,4.5,10,10v10"/>
  <path class="st0" d="M15,6.8v1.4c0,1.5-1.3,2.8-3,2.8s-3-1.3-3-2.8h0v-1.4"/>
  <path class="st0" d="M10,15h0"/>
  <path class="st0" d="M14,15h0"/>
  <path class="st0" d="M10,19c-2.2,0-4-1.8-4-4v-3c0-3.3,2.7-6,6-6s6,2.7,6,6v3c0,2.2-1.8,4-4,4h-4Z"/>
  <path class="st0" d="M9,19l-2,3"/>
  <path class="st0" d="M15,19l2,3"/>
</svg>