<?xml version="1.0" encoding="UTF-8"?>
<svg id="illu" xmlns="http://www.w3.org/2000/svg" viewBox="0 0 68.839296157314493 73.355259701300383">
  <defs>
    <style>
      .cls-1 {
        fill: #2a2a25;
      }
    </style>
  </defs>
  <path class="cls-1" d="M10.674728205380234,10.725477333780873l-.04080931416047,6.090085523279413c-.004919588659504.734163664719745-.604064945790014,1.32533279269046-1.338228610509759,1.320413204030046l-2.655693682269884-.017795651199776c-.734163664720654-.004919588660414-1.32533279269046-.604064945790014-1.320413204040051-1.338228610509759l.04080931415956-6.090085523279413c.00793591602087-1.18429844423008-1.419957036909182-1.786992149340222-2.262994037810131-.955178228501609L.423909337269833,12.372586078659879c-.250966547149801.247625510341095-.393285306940015.58480499713005-.395647776729675.937362822040086L.000029885840377,17.523038900430038c-.002362469780564.352557824900941.135424871669784.69161428661937.383050381999055.94258083377099l4.505244292150564,4.566030384019541c.247625510340185.250966547149801.385412851789624.590023008879143.383050381999965.942580833780085l-.094235778309667,14.063062834629818c-.004919588660414.734163664719745.586249539309392,1.333309021849345,1.320413204030046,1.338228610509759l2.655693682269884.01779565121069c.734163664719745.0049195886495,1.33330902185935-.586249539321216,1.338228610509759-1.32041320404096l.094235778319671-14.063062834629818c.002362469780564-.352557824899122.144681229579874-.689737311689896.395647776730584-.937362822029172l4.566030384009537-4.505244292149655c.250966547149801-.247625510341095.39328530695002-.584804997131869.395647776729675-.937362822030991l.028231674700692-4.213089999730073c.002362469789659-.352557824899122-.135424871660689-.691614286630283-.383050381999965-.942580833780085l-2.637898031060104-2.673489333479665c-.831813920840432-.843037000910044-2.267655516519881-.259533016929709-2.275591432539841.924765427300372Z"/>
  <path class="cls-1" d="M40.15631718404984,8.055725180140143c-.03125,0-.061645507819776.000122070310681-.092895507819776.000366210941138l-3.030517578110448.022033691398974c-.296264648449323-.719665527340112-.390747070319776-.949279785148974-.704833984389552-1.712097167970569,1.3349609375-.720153808588293,2.07080078125-2.268737792959655,1.681762695319776-3.80615234375C37.62116093404984,1.023498617640143,36.240667769980064.000000082480256,34.725042769980064.000000082480256c-.275268554680224-.000061035148974-.555053710930224.033752441409888-.834228515610448.104370117191138-1.8154296875.459350585939319-2.914794921889552,2.303466796878638-2.455444335949323,4.118957519529431.388793945309772,1.536315917970569,1.77099609375,2.54833984375,3.28662109375,2.54833984375h.003051757809772l.139404296889552,1.322265625-1.89111328125.013732910159888c-6.9130859375.05029296875-12.4765625,5.695190429689319-12.42626953125,12.608215332029431l.015380859360448,2.114501953119543c.033813476569776,4.631591796880457,3.799072265639552,8.363220214851026,8.422973632819776,8.363220214851026.02099609375,0,.041625976569776-.000122070310681.062622070319776-.000244140630457l15.27587890625-.111083984369543c4.652587890610448-.033813476560681,8.39697265625-3.832946777351026,8.363037109360448-8.485534667970569l-.015380859360448-2.114501953130457c-.050048828139552-6.881774902338293-5.644897460949323-12.426513671869543-12.515258789069776-12.426513671869543ZM31.678656051230064,18.723816000450825h-.0078125c-.589477539059772,0-1.073974609360448-.480041503900793-1.078369140610448-1.070434570310681l-.02294921875-3.173950195308862c-.00439453125-.59307861328125.477294921860448-1.08184814453125,1.0703125-1.086120605470569h.007934570300677c.589477539059772-.000061035159888,1.073852539059772.47998046875,1.078247070309772,1.070434570310681l.023071289069776,3.173950195308862c.004272460930224.593017578130457-.477416992180224,1.081787109380457-1.070434570319776,1.086120605470569ZM41.624945113730064,18.651428305140143h-.007934570309772c-.589599609370453,0-1.073852539050677-.47998046875-1.078247070300677-1.070373535159888l-.023071289069776-3.173950195308862c-.004272460930224-.59307861328125.477416992180224-1.08184814453125,1.070434570319776-1.086120605470569.002685546860448,0,.005249023430224-.000061035150793.007934570300677-.000061035150793.589477539059772,0,1.073852539059772.480041503900793,1.078247070309772,1.070495605459655l.02294921875,3.173950195321595c.00439453125.593017578119543-.477294921860448,1.081787109369543-1.0703125,1.086059570308862Z"/>
  <path class="cls-1" d="M40.41327544600972,57.870927275369468h-7.592651367199323c-6.78747558592022,0-12.289794921860448-5.502319335928405-12.289794921860448-12.289794921869543,0-6.787475585939319,5.502319335940228-12.289794921880457,12.289794921860448-12.289794921880457h7.592651367199323c6.787475585940228,0,12.289794921880457,5.502319335941138,12.289794921880457,12.289794921880457,0,6.787475585941138-5.502319335940228,12.289794921869543-12.289794921880457,12.289794921869543Z"/>
  <path class="cls-1" d="M30.164919366449794,73.35525970118033h-5.352156464349719c-2.098730852640074,0-3.588226757329721-2.045558117029941-2.943910551250156-4.042938355849401l5.352156464339714-16.591685039460572c1.082594900840377-3.356044192600166,6.037200342180768-2.576687258850143,6.037200342180768.949648564930612v16.591685039449658c0,1.708376778340607-1.384913012590914,3.093289790929703-3.093289790920608,3.093289790929703Z"/>
  <path class="cls-1" d="M43.64364035681956,73.355259701060277l5.352156464340624.000000000240107c2.098730852660083.000000000090949,3.588226757429766-2.04555811686987,2.94391055144024-4.042938355720253l-5.352156463600295-16.591685039700678c-1.082594900670301-3.356044192649279-6.037200342069809-2.576687259119353-6.037200342219876.949648564661402l-.000000000740329,16.591685039449658c-.000000000080036,1.708376778340607,1.384913012449942,3.093289790989729,3.093289790779636,3.093289791069765Z"/>
  <path class="cls-1" d="M61.804569817054471,55.648837542790716l5.017233225830751-1.863585140619762c1.967398045289883-.730764068130156,2.651435714200488-3.166949308981202,1.351964583899644-4.81499238286051l-10.794347161754558-13.689837859470572c-2.183401265090652-2.769079857580437-6.556594238110847-.313332409139548-5.328747652180027,2.992335012650074l5.777113935910165,15.553423000099428c.594845386149245,1.601471255860815,2.375311812429572,2.417502756330578,3.976783068294026,1.822657370201341Z"/>
  <path class="cls-1" d="M.372243416109995,32.27742473301987l.876569391610246-5.279886828378949c.343727474879415-2.07039189886018,2.605612372759424-3.204756376870137,4.470496894719872-2.24201190839085l15.491079776359584,7.997251942349976c3.133421843360338,1.617625387310909,1.553129498980525,6.377687195299586-1.925590563179867,5.800148390480899l-16.367649167979835-2.717365113980122c-1.685308736759907-.279795780110362-2.824702111640363-1.872827745321047-2.544906331530001-3.558136482080954Z"/>
</svg>