<?xml version="1.0" encoding="UTF-8"?>
<svg id="Calque_1" xmlns="http://www.w3.org/2000/svg" version="1.1" viewBox="0 0 24 24">
  <!-- Generator: Adobe Illustrator 30.1.0, SVG Export Plug-In . SVG Version: 2.1.1 Build 136)  -->
  <defs>
    <style>
      .st0 {
        fill: none;
        stroke: #2a2a25;
        stroke-linecap: round;
        stroke-linejoin: round;
        stroke-width: 2px;
      }
    </style>
  </defs>
  <path class="st0" d="M15,21v-5c0-.6-.4-1-1-1h-4c-.6,0-1,.4-1,1v5"/>
  <path class="st0" d="M17.8,10.3c-.4-.4-1.1-.4-1.5,0-1,.9-2.5.9-3.5,0-.4-.4-1.1-.4-1.5,0-1,.9-2.5.9-3.5,0-.4-.4-1.1-.4-1.5,0-1,1-2.6.9-3.5,0-.8-.9-.9-2.2-.2-3.2l2.9-4.2c.4-.5,1-.9,1.7-.9h10c.7,0,1.3.3,1.7.9l2.9,4.2c.8,1.1.5,2.7-.6,3.5-1,.7-2.3.6-3.2-.2"/>
  <path class="st0" d="M4,10.9v8.1c0,1.1.9,2,2,2h12c1.1,0,2-.9,2-2v-8.1"/>
</svg>