<?xml version="1.0" encoding="UTF-8"?>
<svg id="Calque_1" xmlns="http://www.w3.org/2000/svg" version="1.1" viewBox="0 0 24 24">
  <!-- Generator: Adobe Illustrator 30.1.0, SVG Export Plug-In . SVG Version: 2.1.1 Build 136)  -->
  <defs>
    <style>
      .st0 {
        fill: none;
        stroke: #2a2a25;
        stroke-linecap: round;
        stroke-linejoin: round;
        stroke-width: 2px;
      }
    </style>
  </defs>
  <path class="st0" d="M11,2.8c.1-.5.6-.9,1.2-.8.4,0,.7.4.8.8l1.1,5.6c.2.8.8,1.4,1.6,1.6l5.6,1.1c.5.1.9.6.8,1.2,0,.4-.4.7-.8.8l-5.6,1.1c-.8.2-1.4.8-1.6,1.6l-1.1,5.6c-.1.5-.6.9-1.2.8-.4,0-.7-.4-.8-.8l-1.1-5.6c-.2-.8-.8-1.4-1.6-1.6l-5.6-1.1c-.5-.1-.9-.6-.8-1.2,0-.4.4-.7.8-.8l5.6-1.1c.8-.2,1.4-.8,1.6-1.6l1.1-5.6Z"/>
</svg>