<?xml version="1.0" encoding="UTF-8"?>
<svg id="Calque_1" xmlns="http://www.w3.org/2000/svg" xmlns:xlink="http://www.w3.org/1999/xlink" version="1.1" viewBox="0 0 24 24">
  <!-- Generator: Adobe Illustrator 30.1.0, SVG Export Plug-In . SVG Version: 2.1.1 Build 136)  -->
  <defs>
    <style>
      .st0 {
        fill: none;
        stroke: #2a2a25;
        stroke-linecap: round;
        stroke-linejoin: round;
        stroke-width: 2px;
      }
    </style>
  </defs>
  <path class="st0" d="M8.8,20v-4.1l1.9.2c1.1,0,2.1-1,2.2-2.1v-5.7c0-3-2.4-5.4-5.4-5.5-3,0-5.4,2.4-5.5,5.4,0,2.8.7,3.1,1,4.6.2.9.2,1.8,0,2.8l-1,4.4"/>
  <path class="st0" d="M19.8,17.8c2.9-2.9,2.9-7.7,0-10.6"/>
  <path class="st0" d="M17,15c1.4-1.4,1.4-3.6,0-4.9,0,0,0,0,0,0"/>
  <image width="1440" height="278" transform="translate(-162.8 117.5) scale(.2)" xlink:href="../Desktop/VOID/–– Graphisme/WORKS/001 - Robovaly/5. ICONOGRAPHIES/Palette_Couleur_Robovaly.png"/>
</svg>