<?xml version="1.0" encoding="UTF-8"?>
<svg id="Calque_1" xmlns="http://www.w3.org/2000/svg" version="1.1" viewBox="0 0 24 24">
  <!-- Generator: Adobe Illustrator 30.1.0, SVG Export Plug-In . SVG Version: 2.1.1 Build 136)  -->
  <defs>
    <style>
      .st0 {
        fill: none;
        stroke: #2a2a25;
        stroke-linecap: round;
        stroke-linejoin: round;
        stroke-width: 2px;
      }
    </style>
  </defs>
  <path class="st0" d="M9.7,4.1c.1-1.3,1.3-2.2,2.6-2.1,1.1.1,2,1,2.1,2.1.1,1.3,1.2,2.2,2.5,2.1.3,0,.5,0,.8-.2,1.2-.5,2.6,0,3.1,1.2.5,1,.1,2.2-.8,2.9-1.1.7-1.3,2.2-.6,3.3.2.2.3.4.6.6,1.1.8,1.3,2.2.5,3.3-.7.9-1.9,1.2-2.9.8-1.2-.5-2.6,0-3.1,1.1-.1.2-.2.5-.2.8-.1,1.3-1.3,2.2-2.6,2.1-1.1-.1-2-1-2.1-2.1-.1-1.3-1.2-2.2-2.5-2.1-.3,0-.5,0-.8.2-1.2.5-2.6,0-3.1-1.2-.5-1-.1-2.2.8-2.9,1.1-.7,1.3-2.2.6-3.3-.2-.2-.3-.4-.6-.6-1-.8-1.3-2.2-.5-3.3.7-.9,1.8-1.2,2.9-.8,1.2.5,2.6,0,3.1-1.1.1-.2.2-.5.2-.8"/>
  <circle class="st0" cx="12" cy="12" r="3"/>
</svg>