<?xml version="1.0" encoding="UTF-8"?>
<svg id="Calque_1" xmlns="http://www.w3.org/2000/svg" version="1.1" viewBox="0 0 24 24">
  <!-- Generator: Adobe Illustrator 30.1.0, SVG Export Plug-In . SVG Version: 2.1.1 Build 136)  -->
  <defs>
    <style>
      .st0 {
        fill: none;
        stroke: #2a2a25;
        stroke-linecap: round;
        stroke-linejoin: round;
        stroke-width: 2px;
      }
    </style>
  </defs>
  <path class="st0" d="M14.7,6.3c-.4.4-.4,1,0,1.4l1.6,1.6c.4.4,1,.4,1.4,0l3.1-3.1c.3-.3.9-.2,1,.2.9,3.2-1,6.5-4.2,7.4-1.4.4-2.8.3-4.1-.3l-7.9,7.9c-.8.8-2.2.8-3,0-.8-.8-.8-2.2,0-3l7.9-7.9c-1.4-3,0-6.6,3-7.9,1.3-.6,2.7-.7,4.1-.3.4.1.5.7.2,1l-3.1,3.1Z"/>
</svg>