<?xml version="1.0" encoding="UTF-8"?>
<svg id="illu" xmlns="http://www.w3.org/2000/svg" viewBox="0 0 495.23 301">
  <defs>
    <style>
      .cls-1 {
        fill: #2a2a25;
      }
    </style>
  </defs>
  <path class="cls-1" d="M266.03,149.3c-.17,0-.34,0-.51,0l-16.63.12c-1.63-3.95-2.14-5.21-3.87-9.39,7.32-3.95,11.36-12.45,9.23-20.88-2.13-8.43-9.71-14.04-18.02-14.04-1.51,0-3.05.19-4.58.57-9.96,2.52-15.99,12.64-13.47,22.6,2.13,8.43,9.72,13.98,18.03,13.98h.02l.76,7.25-10.38.08c-37.93.28-68.45,31.25-68.17,69.17l.08,11.6c.19,25.41,20.84,45.88,46.21,45.88.12,0,.23,0,.34,0l83.81-.61c25.53-.19,46.07-21.03,45.88-46.55l-.08-11.6c-.27-37.76-30.97-68.17-68.66-68.17ZM219.52,207.82h-.04c-3.23,0-5.89-2.63-5.92-5.87l-.13-17.41c-.02-3.25,2.62-5.94,5.87-5.96h.04c3.23,0,5.89,2.63,5.92,5.87l.13,17.41c.02,3.25-2.62,5.93-5.87,5.96ZM274.09,207.43h-.04c-3.23,0-5.89-2.63-5.92-5.87l-.13-17.41c-.02-3.25,2.62-5.94,5.87-5.96.01,0,.03,0,.04,0,3.23,0,5.89,2.63,5.92,5.87l.13,17.41c.02,3.25-2.62,5.93-5.87,5.96Z"/>
  <g>
    <path class="cls-1" d="M246.76,26.44l-46.52,46.52,19.78,19.78c30.89-14.57,54.53,13.39,51.16,34.29l39.2-36.97-63.62-63.62Z"/>
    <path class="cls-1" d="M203.65,136.44c-4.77-12.28-1.71-24.35,3.7-32.35l-52.27-52.27L19.9,187.02c70.83-21.64,134.64-19.52,139.11-19.51,12.51-17.41,30.74-27.08,44.65-31.06Z"/>
    <path class="cls-1" d="M339.6,85.7l-52.74,49.75c34.05,8.59,60.13,37.82,63.93,73.53,68.32,18.02,124.37,12.52,124.59,12.5l-135.78-135.78Z"/>
  </g>
</svg>