<?xml version="1.0" encoding="UTF-8"?>
<svg id="illu" xmlns="http://www.w3.org/2000/svg" viewBox="0 0 609.03 301">
  <defs>
    <style>
      .cls-1 {
        fill: #2a2a25;
      }
    </style>
  </defs>
  <g>
    <path d="M318.07,106.26c-.13,0-.26,0-.4,0l-13.02.09c-1.27-3.09-1.68-4.08-3.03-7.35,5.73-3.09,8.89-9.74,7.22-16.35-1.67-6.6-7.6-11-14.11-11-1.18,0-2.38.14-3.58.45-7.8,1.97-12.52,9.89-10.55,17.69,1.67,6.6,7.61,10.95,14.12,10.95h.01l.6,5.68-8.12.06c-29.69.22-53.59,24.46-53.37,54.15l.07,9.08c.15,19.89,16.32,35.92,36.18,35.92.09,0,.18,0,.27,0l65.61-.48c19.98-.15,36.07-16.46,35.92-36.45l-.07-9.08c-.21-29.56-24.25-53.37-53.75-53.37ZM281.65,152.09h-.03c-2.53,0-4.61-2.06-4.63-4.6l-.1-13.63c-.02-2.55,2.05-4.65,4.6-4.67h.03c2.53,0,4.61,2.06,4.63,4.6l.1,13.63c.02,2.55-2.05,4.65-4.6,4.67ZM324.37,151.77h-.03c-2.53,0-4.61-2.06-4.63-4.6l-.1-13.63c-.02-2.55,2.05-4.65,4.6-4.67.01,0,.02,0,.03,0,2.53,0,4.61,2.06,4.63,4.6l.1,13.63c.02,2.55-2.05,4.65-4.6,4.66Z"/>
    <g>
      <path d="M302.98,10.08l-36.42,36.42,15.48,15.48c24.18-11.41,42.69,10.48,40.05,26.85l30.69-28.95-49.81-49.81Z"/>
      <path d="M269.23,96.2c-3.73-9.61-1.34-19.06,2.9-25.32l-40.92-40.92-105.84,105.84c55.45-16.94,105.41-15.28,108.91-15.28,9.8-13.63,24.07-21.2,34.95-24.32Z"/>
      <path d="M375.66,56.48l-41.29,38.95c26.66,6.73,47.08,29.61,50.05,57.57,53.48,14.11,97.37,9.8,97.54,9.79l-106.3-106.3Z"/>
    </g>
  </g>
  <g>
    <path class="cls-1" d="M14.49,226.19h32.97c9.86,0,17.21,1.8,22.05,5.4,4.84,3.6,7.26,8.91,7.26,15.92,0,4.47-.89,8.09-2.65,10.88-1.77,2.78-4.36,5.02-7.79,6.7l15.14,23.23h-23.84l-11.57-18.97h-10.7v18.97H14.49v-62.12ZM55.56,247.69c0-2.21-.73-3.75-2.18-4.62-1.45-.87-3.8-1.3-7.04-1.3h-10.96v12.01h10.79c3.31,0,5.7-.44,7.18-1.31s2.22-2.46,2.22-4.78Z"/>
    <path d="M85.05,257.25c0-6.84,1.53-12.7,4.57-17.57s7.44-8.6,13.18-11.18c5.74-2.58,12.59-3.87,20.53-3.87s14.65,1.3,20.27,3.87c5.63,2.58,9.95,6.31,12.96,11.18,3.02,4.87,4.52,10.73,4.52,17.57s-1.52,12.7-4.57,17.57-7.43,8.6-13.14,11.18c-5.71,2.58-12.57,3.87-20.58,3.87s-14.57-1.29-20.22-3.87c-5.66-2.58-9.99-6.31-13.01-11.18s-4.52-10.73-4.52-17.57ZM108.37,257.25c0,4.7,1.29,8.33,3.87,10.88,2.58,2.56,6.19,3.83,10.83,3.83s8.25-1.27,10.83-3.83c2.58-2.55,3.87-6.17,3.87-10.88s-1.29-8.32-3.87-10.88c-2.58-2.55-6.19-3.82-10.83-3.82s-8.25,1.27-10.83,3.82c-2.58,2.56-3.87,6.18-3.87,10.88Z"/>
    <path d="M171.7,226.19h34.28c18.04,0,27.06,5.37,27.06,16.1,0,5.8-3.25,10.15-9.75,13.05,8.06,2.67,12.09,7.57,12.09,14.71,0,5.97-2.36,10.51-7.09,13.62-4.73,3.1-11.61,4.65-20.66,4.65h-35.93v-62.12ZM210.33,241.73c-1.1-.67-2.93-1.01-5.48-1.01h-12.79v9.05h13.05c4.58,0,6.87-1.54,6.87-4.61,0-1.62-.55-2.77-1.65-3.43ZM214.16,268.31c0-1.92-.68-3.29-2.05-4.13s-3.58-1.26-6.66-1.26h-13.4v10.88h13.57c3.08,0,5.26-.42,6.57-1.26s1.96-2.25,1.96-4.22Z"/>
    <path d="M243.21,257.25c0-6.84,1.53-12.7,4.57-17.57,3.04-4.87,7.44-8.6,13.18-11.18,5.74-2.58,12.59-3.87,20.53-3.87s14.65,1.3,20.27,3.87c5.63,2.58,9.95,6.31,12.96,11.18s4.52,10.73,4.52,17.57-1.52,12.7-4.57,17.57c-3.04,4.87-7.43,8.6-13.14,11.18-5.71,2.58-12.57,3.87-20.58,3.87s-14.57-1.29-20.22-3.87c-5.66-2.58-9.99-6.31-13.01-11.18s-4.52-10.73-4.52-17.57ZM266.53,257.25c0,4.7,1.29,8.33,3.87,10.88,2.58,2.56,6.19,3.83,10.83,3.83s8.25-1.27,10.83-3.83c2.58-2.55,3.87-6.17,3.87-10.88s-1.29-8.32-3.87-10.88c-2.58-2.55-6.19-3.82-10.83-3.82s-8.25,1.27-10.83,3.82c-2.58,2.56-3.87,6.18-3.87,10.88Z"/>
    <path d="M358.15,267.17l13.48-40.98h23.93l-23.93,62.12h-27.32l-23.84-62.12h24.44l13.23,40.98Z"/>
    <path d="M410.87,288.31h-22.62l25.75-62.12h26.8l25.75,62.12h-23.14l-3.31-9.13h-26.01l-3.22,9.13ZM427.14,242.73l-7.22,20.01h14.36l-7.13-20.01Z"/>
    <path d="M473.85,226.19h22.44v44.11h33.41l-2.09,18.01h-53.77v-62.12Z"/>
    <path d="M545.72,265.52l-25.49-39.33h23.92l13.05,22.1,13.14-22.1h23.32l-25.49,39.24v22.88h-22.45v-22.79Z"/>
  </g>
</svg>